<?xml version="1.0" encoding="utf-8"?>
<svg xmlns="http://www.w3.org/2000/svg" fill="none" height="45" viewBox="0 0 120 45" width="120">
<path clip-rule="evenodd" d="M101.456 29.6686C101.456 29.4169 101.489 29.1754 101.519 28.9678C101.551 28.7412 101.567 28.5855 101.567 28.4748C101.567 28.3886 101.557 28.3308 101.538 28.286C101.446 28.2744 101.339 28.2646 101.339 28.2646C101.217 28.2448 101.033 28.2146 100.976 28.2309L100.984 28.2263L100.759 28.3146L99.4065 28.4053C98.5322 28.4844 97.6266 28.566 96.6512 28.3727L96.5427 28.3527L94.7682 27.431L94.6633 27.2621C94.3014 26.6811 93.9978 25.8714 93.9978 25.0565C93.9978 24.5972 94.0987 24.1392 94.337 23.7147C94.3294 23.7279 94.3193 23.7372 94.3144 23.7517L94.3506 23.6787C94.3438 23.6905 94.3408 23.703 94.337 23.7147C94.6771 22.9781 95.3671 22.6081 95.9257 22.3124C95.9257 22.3124 96.3835 22.0545 96.4101 22.0386C97.1639 21.2855 98.1003 21.3554 98.799 21.422C99.2022 21.4616 99.5849 21.4973 99.843 21.4058C100.372 21.1798 100.872 21.2685 101.236 21.3322C101.393 21.3611 101.478 21.3694 101.546 21.3732C101.553 21.3175 101.574 21.2685 101.574 21.2098C101.574 21.0199 101.545 20.8098 101.517 20.5865C101.486 20.3391 101.453 20.075 101.453 19.8035C101.453 19.5879 101.487 19.3645 101.545 19.1386C101.489 18.9011 101.456 18.6597 101.456 18.4152C101.456 18.2492 101.465 18.0837 101.473 17.9189C101.48 17.7556 101.486 17.6079 101.486 17.4743C101.486 17.1779 101.436 16.9788 101.338 16.8274C101.32 16.8262 101.27 16.8214 101.27 16.8214C100.961 16.7843 100.808 16.7739 100.739 16.8321L100.497 17.0407L100.175 17.0102C99.7887 16.971 99.3912 17.0132 98.9693 17.0564C98.3976 17.117 97.7522 17.1552 97.0778 17.015C96.9024 17.035 95.7105 17.1747 95.7105 17.1747C94.1901 17.3148 92.7514 17.4475 91.8638 18.5189L91.7276 18.681L91.524 18.7479C90.6947 19.0227 90.1173 19.8683 89.5587 20.6864L89.4108 20.9013L89.3127 20.9748C88.2185 21.7827 88.164 23.0179 88.0982 24.4494C88.0982 24.4494 88.009 25.5553 87.9851 25.8639C88.2915 26.5471 88.4928 27.3038 88.553 28.0447C88.8168 29.0153 89.4305 29.938 90.1954 30.5117L90.3986 30.6631L90.4632 30.9033C90.5592 31.2791 90.9578 31.5133 91.6013 31.8544C91.9548 32.0417 92.3202 32.2338 92.644 32.4991L92.7236 32.5632L92.7837 32.6509C92.9027 32.8236 93.1804 32.853 93.7444 32.8712C94.0876 32.8825 94.4616 32.9249 94.831 33.0276C95.4409 32.7881 96.0347 32.9128 96.4842 33.0276C96.7606 33.0963 97.0182 33.1619 97.1984 33.1223L97.3155 33.0982L97.4314 33.1112C97.6255 33.1302 97.878 33.0703 98.1463 33.0041C98.6511 32.8825 99.318 32.7551 99.9839 33.0944C100.202 33.0758 100.464 33.0538 100.464 33.0538C100.859 33.0329 101.204 32.9966 101.432 32.8792C101.491 32.6738 101.517 32.4382 101.517 32.171C101.517 32.0758 101.517 31.9777 101.515 31.8787C101.512 31.7742 101.51 31.6647 101.51 31.5546C101.51 31.2109 101.551 30.8457 101.642 30.4815C101.522 30.2081 101.456 29.9325 101.456 29.6686ZM66.3065 25.8176C66.188 25.4024 66.1302 25.2597 65.9149 25.1579L65.3066 24.8709L65.5441 24.2482C65.7001 23.8346 65.966 23.4873 66.1997 23.1804C66.5411 22.7343 66.7104 22.4809 66.7104 22.2177C66.7104 22.1584 66.7028 22.1013 66.6868 22.038L66.5917 21.6818L66.8244 21.3973C66.9884 21.1965 67.0697 20.9141 67.0697 20.5418C67.0697 20.2917 67.0218 19.9867 66.9479 19.6532C66.8174 19.4486 66.5619 19.0416 66.5619 19.0416C66.0489 18.1766 65.7697 17.7941 65.2294 17.7773L64.9216 17.7677L64.7138 17.5404C64.1815 16.9664 63.1236 17.0168 62.2724 17.0574L62.2096 17.0588C61.2803 17.1938 60.2649 17.1915 59.2624 17.0632C58.4217 17.2694 57.6738 17.2072 56.9503 17.1374C56.4398 17.0874 55.9508 17.0449 55.4156 17.0911C54.7492 17.5266 54.0664 17.2955 53.6743 17.1409C53.5508 17.0924 53.3621 17.0168 53.322 17.0149C53.322 17.0149 53.2682 17.0659 53.2536 17.0832C53.2351 17.103 53.2196 17.1192 53.2196 17.1622C53.2196 17.2177 53.2426 17.3161 53.3072 17.5253C53.3671 17.7212 53.4519 17.9977 53.4519 18.3066C53.4519 18.5557 53.3607 18.8223 53.1896 19.0835C53.1472 19.2199 53.1247 19.3601 53.1247 19.5087C53.1247 19.9183 53.2633 20.3753 53.3996 20.8196L53.4824 21.0961L53.3968 21.3243C53.1957 21.8572 53.1247 22.4329 53.1247 22.9785C53.1247 23.4904 53.1868 23.9731 53.2607 24.3709L53.2927 24.535L53.2459 24.6978C53.1206 25.1431 53.0734 25.6399 53.0734 26.1444C53.0734 26.9813 53.2048 27.8372 53.3255 28.5023L53.3825 28.8088L53.1935 29.0596C53.0575 29.2428 52.999 29.543 52.999 29.8739C52.999 30.2316 53.0692 30.6294 53.1868 30.9417L53.322 31.3065L53.0901 31.6228C52.9157 31.8567 52.8358 32.264 52.8358 32.6533C52.8358 32.922 52.8862 33.155 52.9547 33.3473C53.8782 33.3759 54.7113 33.3693 55.5438 33.0565L55.797 32.9612L56.0531 33.0524C56.8069 33.3235 57.7455 33.3235 58.4986 33.0524L58.8493 32.9289L59.1573 33.1308C59.2353 33.185 59.4884 33.2055 59.6548 33.2182C59.6548 33.2182 59.8807 33.2487 60.0398 33.2711C60.8366 33.1157 61.6004 33.149 62.3373 33.2003C62.8185 33.2342 63.2732 33.2636 63.7012 33.2321C63.8699 33.178 65.6633 32.6028 65.6633 32.6028C66.0489 32.4539 66.2106 32.0752 66.4411 31.4686C66.5729 31.1203 66.7088 30.7611 66.9292 30.4278L67.0697 30.2139C67.0697 30.2139 67.1647 30.1835 67.2376 30.1604C67.2523 30.117 67.2955 29.9981 67.3118 29.9502C67.3007 29.8223 67.2855 29.6929 67.2855 29.5691C67.2855 29.2586 67.3147 28.9606 67.3409 28.6841C67.3666 28.4085 67.3881 28.1722 67.3881 27.9618C67.3881 27.6487 67.3316 27.4021 67.1903 27.1832C66.6107 26.7929 66.4203 26.2202 66.3065 25.8176ZM119.928 30.4724C119.928 30.2751 119.893 30.0498 119.842 29.7738C119.79 29.4837 119.732 29.1614 119.732 28.8161C119.732 28.6461 119.757 28.4721 119.791 28.2926C119.739 28.2536 119.069 27.7573 119.069 27.7573C118.292 27.1817 117.555 26.6366 116.744 26.4281L116.31 26.2984L116.126 25.5358C116.038 25.1942 115.939 24.8021 115.939 24.382C115.939 24.1261 115.984 23.8594 116.086 23.5896C116.079 23.6113 116.067 23.6276 116.06 23.6496L116.094 23.5433C116.087 23.5586 116.09 23.5738 116.086 23.5896C116.254 22.9642 116.775 22.6163 117.165 22.3615C117.165 22.3615 117.209 22.3328 117.249 22.3063C117.654 21.5053 118.331 21.0496 118.95 20.6598C119.407 20.3719 119.784 20.1039 120 19.7477C119.942 19.561 119.734 19.352 119.501 19.166L119.286 18.9939L119.239 18.7241C119.109 17.9609 118.223 17.4318 117.442 16.9629C117.442 16.9629 117.361 16.9153 117.287 16.8697C117.214 16.88 117.127 16.8938 117.127 16.8938C116.475 16.972 116.404 17.0311 116.369 17.1778L116.275 17.5418L115.917 17.6781C115.31 17.9088 114.664 18.5077 114.188 19.2797L114.026 19.5481L113.713 19.615C113.633 19.6319 113.497 19.8111 113.379 19.9658C113.133 20.292 112.798 20.7377 112.172 20.8713L111.795 20.9518L111.512 20.6961C111.226 20.4381 111.083 20.0914 111.068 19.6759C110.868 19.3479 110.761 19.0201 110.761 18.7101C110.761 18.3451 110.852 18.0038 110.93 17.7136C111 17.4554 111.062 17.2207 111.062 17.0101C111.062 16.9793 111.055 16.9502 111.052 16.9201C110.916 16.751 110.678 16.7359 109.823 16.9479C109.435 17.0427 109.034 17.1416 108.638 17.1416H108.158C108.158 17.1416 108.091 16.9962 108.031 16.8697C108.022 16.8676 108.002 16.862 107.986 16.8597C107.382 17.0905 106.809 17.006 106.338 16.9178C106.172 16.8877 106.024 16.8722 105.874 16.8583C105.863 16.9383 105.849 17.0171 105.849 17.0171C105.849 17.0171 105.837 17.1099 105.828 17.184C105.895 17.4579 105.95 17.7322 105.95 17.9961C105.95 18.3829 105.901 18.758 105.853 19.1079C105.809 19.4402 105.766 19.7477 105.766 20.036C105.766 20.3102 105.807 20.5673 105.913 20.8042L106.024 21.0525L105.942 21.3136C105.796 21.7701 105.721 22.2519 105.721 22.6943C105.721 23.0075 105.758 23.3024 105.837 23.5495L105.871 23.6541L105.826 25.461L105.784 28.9559L105.825 29.3959C105.849 29.5899 105.878 29.8074 105.878 30.036C105.878 30.2595 105.847 30.4938 105.764 30.7276C105.7 31.0555 105.672 31.3868 105.672 31.7158C105.672 32.1638 105.725 32.5956 105.791 33.0118C105.853 32.9937 105.92 32.9754 105.92 32.9754C106.189 32.8807 106.524 32.7644 106.922 32.8075L107.115 32.8272L107.271 32.9376C107.347 32.9898 107.568 33.0252 107.656 32.9976L108.147 32.85C108.147 32.85 108.236 32.9468 108.323 33.0439C108.359 33.0439 108.383 33.0415 108.435 33.0402C109.171 32.4692 109.928 32.7612 110.315 32.9326C110.713 33.1109 110.742 33.0935 110.825 33.0386C110.825 33.0386 110.943 32.9694 110.96 32.9616C110.943 32.882 110.909 32.7651 110.88 32.6759C110.799 32.4334 110.697 32.1173 110.697 31.7697C110.697 31.5263 110.747 31.2643 110.89 30.9992L110.939 30.91L111.011 30.8358C111.064 30.7837 111.075 30.6297 111.075 30.4639C111.075 30.3838 111.073 30.3021 111.071 30.2277C111.067 30.1319 111.065 30.035 111.065 29.9344C111.065 29.6398 111.091 29.3259 111.228 29.0157L111.512 28.3766L112.177 28.6285C112.775 28.8556 113.128 29.342 113.416 29.7293L113.618 29.9952L113.526 29.9014L114.361 30.7582C114.684 31.1231 115.017 31.4752 115.342 31.698C116.165 31.7292 116.658 32.2566 116.992 32.6275C117.251 32.9176 117.41 33.0832 117.616 33.1138L117.837 33.1838L117.958 33.2542C118.016 33.2802 118.254 33.2522 118.383 33.2376C118.695 33.2003 119.086 33.1539 119.478 33.3098L119.526 33.3297C119.526 33.3297 119.575 33.3561 119.577 33.3582C119.599 33.0274 119.671 32.7271 119.744 32.4738C119.815 32.2155 119.865 32.0323 119.865 31.8686C119.865 31.7712 119.848 31.6792 119.804 31.5837L119.666 31.2777L119.816 30.9761C119.899 30.8161 119.928 30.6562 119.928 30.4724ZM86.7777 32.1724C86.2881 31.3856 86.0342 30.5703 85.8109 29.7784C85.6092 29.0623 85.418 28.3871 85.0493 27.7697L84.963 27.6278L84.9516 27.4613C84.9033 26.8474 84.6521 26.2622 84.1822 25.6696L84.263 25.7554C83.6875 25.2337 83.7112 24.5612 83.7267 24.116C83.7368 23.8256 83.7368 23.6463 83.6631 23.561C82.7826 22.8434 82.6894 21.8668 82.6206 21.0724C82.5786 20.5643 82.5346 20.0819 82.3259 19.7615C81.9612 19.2705 81.8682 18.7259 81.7856 18.2452C81.733 17.9267 81.6804 17.6259 81.5565 17.4163L81.5315 17.3712L81.5104 17.3233C81.3856 17.0204 81.3666 16.9748 80.5545 17.1119C80.1084 17.1864 79.569 17.2375 79.0205 17.1078C78.9308 17.1142 78.841 17.1142 78.7332 17.0882C78.7147 17.0941 78.5987 17.1258 78.5987 17.1258C78.307 17.2138 77.7595 17.3523 77.2493 17.1142C77.01 17.1239 76.2149 17.1577 76.2149 17.1577C75.3656 17.2152 74.4139 17.2674 73.5331 17.0765C73.4959 17.0924 73.4508 17.1142 73.4508 17.1142C72.913 17.3871 72.4597 17.3557 72.0873 17.0737C71.974 17.0435 71.8898 17.0242 71.8587 17.0149C71.7822 17.1829 71.7305 17.3678 71.7305 17.5716C71.7305 17.6774 71.7418 17.7864 71.7657 17.8933C71.9038 18.208 71.974 18.5224 71.974 18.8214C71.974 19.1918 71.9017 19.5442 71.836 19.8574C71.7729 20.1711 71.7305 20.4012 71.7305 20.5843C71.7305 20.7593 71.7822 20.8888 71.8727 21.0104C71.9388 21.0216 72.0216 21.0262 72.1198 21.0287C72.4695 21.0368 73.0562 21.0461 73.5128 21.5785L73.6883 21.843L73.6729 22.6809C73.6729 22.7598 73.674 22.8377 73.674 22.9198C73.674 23.5828 73.5863 24.3755 73.0135 24.9948C72.9724 25.6103 72.7107 26.1162 72.4864 26.529C72.2755 26.9155 72.1395 27.176 72.1395 27.439C72.1395 27.4613 72.1425 27.481 72.1432 27.5027L72.1719 27.84L71.9211 28.0764C71.45 28.5211 71.2852 29.2399 71.1098 29.9986L70.9819 30.5564C70.9819 30.5564 70.834 30.5703 70.6892 30.5824C70.6343 31.2446 70.3291 31.766 70.041 32.2242C69.8386 32.5451 69.687 32.8362 69.6269 33.1343C69.7293 33.1305 69.8857 33.1065 70.0032 33.0863C70.2874 33.038 70.6299 32.9986 70.992 33.0392C71.4168 32.8778 71.8617 32.9205 72.2056 32.9708C72.2056 32.9708 72.3496 32.9845 72.4621 32.997C73.0572 32.7409 73.617 32.8659 74.0013 32.9725C74.3366 33.0634 74.4219 33.0559 74.4888 33.0195C74.5381 32.9205 74.5821 32.8395 74.5849 32.7863L74.6597 32.4682L74.8712 32.276L74.9631 32.0656C75.0555 31.8219 75.1792 31.4886 75.5084 31.2185L75.5351 31.1969L75.5627 31.1761C76.7012 30.4041 78.1177 30.5451 79.2564 30.66C79.2564 30.66 79.4024 30.671 79.4639 30.6786C80.8287 30.6257 81.441 31.8487 81.809 32.5877C81.809 32.5877 81.8634 32.6903 81.9172 32.7916C82.2351 32.9119 82.7222 32.8266 83.0698 32.6303L83.4681 32.4078L83.8494 32.6534C84.2093 32.8856 84.6635 32.8213 85.3698 32.6903L86.3832 32.5094C86.3832 32.5094 86.4746 32.7059 86.545 32.858C86.5468 32.858 86.6246 32.8705 86.6634 32.8778C86.7557 32.8316 86.8282 32.7859 86.8657 32.7422C86.8628 32.5911 86.8303 32.4275 86.7907 32.2398C86.7907 32.2398 86.7851 32.2065 86.7777 32.1724ZM49.2981 16.6343L49.4776 16.6007C49.4014 16.6175 49.3273 16.6211 49.2537 16.6375L49.2981 16.6343ZM34.4652 30.6839L34.368 30.5509L34.3639 29.477C34.3663 29.3287 34.368 29.1808 34.368 29.0342C34.368 28.3919 34.3285 27.7582 34.0768 27.2469L33.8846 26.8572L34.1424 26.5078C34.3663 26.2051 34.4379 25.8456 34.4379 25.442C34.4379 25.0912 34.3842 24.7078 34.3254 24.2981L34.2016 23.2595C34.2016 23.2595 34.3842 22.7577 34.4367 22.6176C34.443 22.5086 34.4479 22.3992 34.4479 22.2911C34.4479 21.7929 34.3875 21.2982 34.3276 20.8145C34.2676 20.3228 34.2049 19.8204 34.2049 19.3101C34.2049 18.8999 34.2556 18.4825 34.3663 18.062C34.3488 17.8157 34.318 17.3191 34.318 17.3177C34.318 16.9666 34.2885 16.7393 34.2228 16.5671C34.0557 16.5685 33.8925 16.5884 33.8276 16.6605L33.441 17.1044L32.9153 16.8298C32.622 16.675 32.2728 16.6605 31.8688 16.6429C31.8688 16.6429 31.6587 16.6267 31.4495 16.6083C31.3623 16.679 31.2056 16.8036 31.2056 16.8036L31.1291 16.8416C30.5204 17.1351 30.0094 16.8641 29.7459 16.7175C29.5363 16.7615 29.3431 16.7587 29.2011 16.752C29.1628 16.97 29.1132 17.1852 29.1132 17.402C29.1132 17.6131 29.1256 17.8278 29.1375 18.0549C29.1504 18.2838 29.1671 18.5287 29.1671 18.7844C29.1671 19.0931 29.1256 19.4287 29.0594 19.7741C29.1375 20.3424 29.171 20.8921 29.171 21.423C29.171 21.841 29.1555 22.2483 29.1398 22.6519C29.1274 23.0464 29.1115 23.434 29.1115 23.8199C29.1115 24.4739 29.1522 25.1239 29.3002 25.8007L29.3079 26.0099L29.2228 26.8132C29.1901 27.4523 29.1375 28.2369 28.5002 28.8028C28.5134 28.7893 28.5307 28.7845 28.5436 28.7686L28.4526 28.8583C28.4717 28.8411 28.4804 28.8206 28.5002 28.8028C28.0761 29.2563 27.502 29.2979 26.7834 28.9053L26.6727 28.8459L26.7419 28.8756C25.7634 28.5345 25.6008 27.5549 25.5131 27.0277L25.4658 26.7507L25.5023 26.605C25.5048 26.59 25.5074 26.5721 25.5074 26.5564C25.5074 26.4598 25.4572 26.3177 25.4028 26.1702C25.333 25.9679 25.2358 25.6897 25.2358 25.385C25.2358 25.2 25.2929 25.0053 25.3913 24.8061C25.4496 24.434 25.4846 24.0579 25.4846 23.6774C25.4846 23.2733 25.4511 22.8675 25.3824 22.4616L25.3433 22.2233L25.4579 22.007C25.5198 21.8894 25.5363 21.6803 25.5363 21.4599C25.5363 21.3333 25.5315 21.2029 25.5266 21.0817V20.6058C25.3139 20.187 25.2122 19.7626 25.2122 19.3542C25.2122 18.9606 25.2754 18.583 25.333 18.2418C25.3913 17.8921 25.4383 17.5979 25.4383 17.3397C25.4383 17.1456 25.3966 16.9727 25.333 16.8075C25.0689 16.8075 24.8139 16.8574 24.5666 16.9638L24.2569 17.0948L23.9526 16.9521C23.4754 16.7272 22.5529 16.4179 21.7455 16.8641L21.6338 16.9259L21.5073 16.9482C21.1245 17.0124 20.7542 16.9457 20.4311 16.8435C20.3924 16.9764 20.3731 17.1373 20.3731 17.3164C20.3731 17.5162 20.3904 17.7294 20.404 17.916C20.404 17.916 20.4165 18.1165 20.4225 18.247C20.5686 18.567 20.6422 18.8845 20.6422 19.1857C20.6422 19.541 20.5748 19.8766 20.5119 20.1758C20.4496 20.4712 20.404 20.7063 20.404 20.9162C20.404 21.0627 20.4277 21.1964 20.4826 21.3292L20.5415 21.4599L20.5029 22.8034C20.4863 23.2977 20.4683 23.7972 20.4683 24.2892C20.4683 25.0554 20.5119 25.7999 20.6688 26.4653L20.7175 26.6686L20.6464 26.8652C20.5908 27.0202 20.5686 27.1804 20.5686 27.3465C20.5686 27.6971 20.667 28.0751 20.7753 28.4944C20.7753 28.4944 20.8764 28.9896 20.9422 29.3161C21.4419 29.7622 21.6603 30.3372 21.8229 30.8202C22.0417 31.4674 22.1544 31.7064 22.5353 31.8263C23.0588 31.9031 23.4825 32.1582 23.8256 32.3767C24.2693 32.6553 24.4738 32.7643 24.7225 32.7075L24.9995 32.6416L25.25 32.7765C25.5823 32.9558 26.0595 32.9174 26.564 32.8746C26.564 32.8746 26.8687 32.8556 27.0109 32.8471C27.2077 32.7995 27.4267 32.6826 27.6593 32.5569C28.185 32.2708 28.8406 31.9191 29.6917 32.1206L30.0108 32.1941L30.1685 32.4754C30.3112 32.7325 30.6311 32.7756 31.2767 32.8046C31.2767 32.8046 31.5254 32.823 31.6757 32.8335C31.7366 32.8224 31.8106 32.8076 31.8106 32.8076C32.0642 32.7562 32.3798 32.6867 32.6733 32.7325L33.016 32.7664C33.8435 32.8556 34.7493 32.9213 35.3731 32.5963C35.3505 32.1237 35.0807 31.6721 34.7609 31.1659L34.4652 30.6839ZM49.4776 18.0758C49.4776 17.6163 49.4183 17.1792 49.3516 16.792C48.871 16.9543 48.4164 16.9195 48.0452 16.8796C47.5588 16.8273 47.4603 16.8414 47.3409 16.9718L46.7797 17.5904C46.7797 17.5904 46.3399 17.1012 46.2655 17.0196C46.2131 17.021 46.0957 17.0231 46.0957 17.0231C45.8641 17.0401 45.4892 17.029 45.1209 16.8477C44.9563 16.8515 44.7893 16.8534 44.7893 16.8534C44.5544 16.8432 44.4434 16.8414 44.3814 16.8854L44.2136 17.0031L44.0068 17.0196C43.2136 17.083 42.3046 16.9474 41.475 16.791C40.8371 17.1062 40.023 17.069 39.3745 16.8375C38.9728 16.7715 38.6395 16.8036 38.3971 16.9047C38.3811 17.401 38.345 18.4684 38.345 18.4794C38.3687 18.6224 38.3936 18.7651 38.3936 18.9079C38.3936 19.1766 38.362 19.4424 38.3332 19.6899C38.3016 19.9649 38.2836 20.1665 38.2836 20.317C38.2836 20.5128 38.3245 20.6089 38.3849 20.6824C38.496 20.6649 38.6011 20.6649 38.6992 20.6746C39.1474 20.5558 39.5417 20.5848 39.9237 20.6269L40.4837 20.6813L40.6254 20.7626C41.3084 21.1518 41.4079 21.7934 41.4079 22.2946C41.4079 22.4089 41.4034 22.515 41.3992 22.6107C41.3931 22.696 41.3892 22.7944 41.3892 22.8872C41.3892 23.0143 41.3992 23.1281 41.4316 23.1789L41.6238 23.4696L41.511 23.7981C41.4061 24.097 41.3694 24.4041 41.3694 24.7222C41.3694 25.1114 41.4265 25.5151 41.4823 25.9349C41.5438 26.372 41.6102 26.8394 41.6102 27.3223C41.6102 27.7782 41.5272 28.2495 41.3544 28.7239C41.4326 29.0679 41.4739 29.4069 41.4739 29.7316C41.4739 30.1619 41.4241 30.575 41.3769 30.98C41.3309 31.3641 41.2873 31.721 41.2873 32.0709C41.2873 32.3388 41.3295 32.6038 41.3992 32.8664C41.5804 32.8979 41.7555 32.9102 41.9531 32.9035C41.9828 32.8937 42.0748 32.8622 42.0748 32.8622C42.2927 32.7769 42.7569 32.6122 43.2242 32.8121C43.4647 32.8321 43.8346 32.8622 43.8346 32.8622C44.2434 32.9242 44.4011 32.9354 44.5427 32.8422C45.2881 32.3229 45.9697 32.6281 46.3368 32.792C46.3368 32.792 46.3884 32.8142 46.4349 32.8321C46.4447 32.7744 46.4776 32.7263 46.4776 32.668C46.4776 32.4628 46.423 32.2503 46.3499 32.0753L46.2901 31.9376L46.3255 31.0579C46.346 30.5811 46.3677 30.0958 46.3677 29.6186C46.3677 29.0112 46.3338 28.4163 46.2232 27.8543L46.1735 27.5921L46.3087 27.3595C46.3852 27.2314 46.4138 27.0745 46.4138 26.8972C46.4138 26.6918 46.3772 26.4599 46.3368 26.2062C46.2901 25.9208 46.2443 25.6267 46.2443 25.3241C46.2443 25.2335 46.2486 25.144 46.2579 25.0536L46.2655 24.9781L46.2878 24.9077C46.3542 24.7083 46.376 24.5101 46.376 24.3046C46.376 24.0822 46.3499 23.8504 46.3199 23.6057C46.2901 23.3394 46.2579 23.0578 46.2579 22.7641C46.2579 22.3625 46.3187 21.9391 46.5311 21.5052C47.1226 20.1982 48.2718 20.4331 48.8234 20.5456C49.155 20.6129 49.291 20.6089 49.3915 20.5848C49.3817 20.4368 49.3432 20.2755 49.2885 20.0894L49.1604 19.632L49.2523 19.4082C49.4201 18.9991 49.4776 18.5329 49.4776 18.0758ZM16.7672 22.9139L16.774 22.6995C16.774 22.6589 16.7763 22.62 16.7763 22.583C16.7763 21.4209 16.266 20.3994 15.3633 19.766L15.1861 19.641L15.1065 19.4382C14.9178 18.9621 14.4855 18.6264 13.9868 18.2381C13.9868 18.2381 13.8715 18.1441 13.7662 18.0624C13.2849 17.9505 12.9113 17.6805 12.6087 17.4451C12.2534 17.1699 12.0745 17.051 11.8691 17.0696L11.5943 17.0955L11.3707 16.9353C10.6037 16.384 9.37944 16.3922 8.29879 16.397L7.82468 16.3998L7.70824 16.3609C7.56842 16.3149 7.44617 16.3584 7.12762 16.4971C6.84567 16.6194 6.47689 16.777 6.02921 16.7778C5.55774 17.0794 5.05834 17.2591 4.60019 17.3814C4.18604 17.4954 3.83683 17.6035 3.57613 17.7973C3.28329 18.4441 2.74846 18.7851 2.33114 19.0304C1.91424 19.2749 1.73624 19.3965 1.67459 19.6259L1.59083 19.9345L1.30327 20.0805C1.2139 20.1276 1.15626 20.2664 1.05209 20.5491C0.953099 20.8235 0.783779 21.1612 0.514306 21.4683C0.459205 21.6568 0.0696951 22.9973 0.0227382 23.1539C0.0201999 23.3361 0.0120565 24.0537 0.0120565 24.0537C0.00486491 24.3444 0 24.6358 0 24.9286C0 26.1292 0.113691 27.2885 0.820583 28.0969L0.916189 28.2049L0.9623 28.3415C1.22765 29.1248 2.01534 30.9896 3.59739 31.4181L3.81493 31.4751L3.96131 31.6421C4.43098 32.1828 5.22851 32.3558 5.99864 32.5235C5.99864 32.5235 6.37229 32.6078 6.42411 32.6219L6.7857 32.6419C7.04545 32.6354 7.38187 32.6614 7.73394 32.8138C9.01669 32.9665 10.8237 33.0547 11.9527 32.1427L12.1555 31.979H12.4182C12.5779 31.979 12.7446 31.8894 13.0069 31.7438L13.6623 31.4316L13.5446 31.4817C14.1549 31.146 14.578 30.5932 15.0257 30.0086C15.4313 29.4788 15.8503 28.9303 16.4652 28.4605C16.6161 28.3556 16.6467 28.1206 16.6765 27.6477C16.7088 27.1718 16.774 26.5562 17.1869 26.053C17.1973 25.8085 17.2101 25.4925 17.2101 25.4925C17.2261 25.1927 17.2388 24.9129 17.2388 24.6506C17.2388 24.0739 17.1685 23.5699 16.8793 23.0948L16.7672 22.9139ZM6.14454 22.6491C6.69416 21.9859 7.22343 21.2582 8.08957 21.0448C9.10464 21.1723 9.73885 21.9207 10.3731 22.6491C10.6284 24.0834 10.5857 25.5816 10.0136 26.8453C9.61123 27.3603 9.04146 27.9572 8.34376 27.9361C7.32837 28.1941 6.77843 27.381 6.31309 26.6947C6.18726 25.6669 5.89035 24.6838 6.14454 23.6773V22.6491ZM59.043 25.7462C59.6265 26.022 60.2117 25.5035 60.698 25.9876C61.3136 26.7143 61.1517 27.8204 60.8613 28.6506C60.698 29.0314 60.3399 29.5151 59.919 29.5522C59.5307 29.4123 58.9127 29.4123 58.8164 28.8239C58.4269 27.7862 58.848 26.7143 59.043 25.7462ZM59.3215 19.7446C60.101 19.6375 60.9878 19.6717 61.3417 20.5377C61.3775 21.5826 60.8105 22.6279 59.8189 23.0597C59.4645 22.9528 59.0389 22.8785 58.8946 22.4486C58.7546 21.547 58.2589 20.3208 59.3215 19.7446ZM77.4743 23.5081C77.8983 23.5455 78.7465 23.3549 78.9369 23.9615C79.1695 24.6039 79.2835 25.3626 79.247 26.1207C78.5923 26.4989 78.0145 27.2955 77.2821 26.5732C76.4744 26.2701 76.8977 25.4758 76.935 24.8693C77.6292 24.6432 77.362 23.9615 77.4743 23.5081Z" fill="#E5C8A2" fill-rule="evenodd"/>
<path clip-rule="evenodd" d="M0 10.6069C0 10.5468 0.225839 10.3992 0.5027 10.2758C0.778289 10.1543 1.20833 9.95598 1.45612 9.83369C1.70604 9.71276 2.09969 9.53489 2.33466 9.44003C2.56919 9.3457 2.94152 9.19214 3.16195 9.0976C3.38387 9.00274 3.88031 8.80285 4.26622 8.65407C4.65329 8.50529 5.25231 8.2841 5.59696 8.16264C5.94245 8.04025 6.46064 7.86363 6.7514 7.7693C7.04141 7.67434 7.49181 7.54156 7.75425 7.47382C8.01775 7.40608 8.60372 7.24005 9.05932 7.10676C9.51492 6.97097 10.146 6.80567 10.4643 6.73741C10.782 6.66946 11.3131 6.58188 11.645 6.5398C11.9757 6.4998 12.5058 6.44546 12.8236 6.41679C13.1412 6.38998 13.5239 6.34676 13.6773 6.32017C13.828 6.29305 14.0535 6.2597 14.1782 6.24578C14.3028 6.233 14.8596 6.14375 16.9306 6.0491C19.0006 5.95518 20.8757 5.85555 21.0962 5.82739C21.3175 5.80183 21.7016 5.75633 21.9485 5.73004C22.1973 5.70272 22.8539 5.65773 23.4045 5.63197C23.9568 5.60381 24.6346 5.58199 24.9112 5.58199C25.187 5.58199 25.6264 5.59311 25.8879 5.60693C26.1508 5.62012 26.5576 5.6541 26.7916 5.67997C27.0264 5.70791 27.3888 5.7637 27.5948 5.80329C27.8024 5.8437 27.9931 5.96516 28.0224 6.07383C28.0487 6.18282 28.1066 6.33648 28.1477 6.41845C28.189 6.49772 28.2572 6.6197 28.2977 6.68712C28.3382 6.75538 28.4181 6.86707 28.4734 6.93481C28.5286 7.00099 28.687 7.13481 28.8261 7.22821C28.9638 7.3239 29.2222 7.48971 29.401 7.59756C29.5817 7.70509 29.7955 7.76078 29.8786 7.72005C29.9623 7.67943 30.109 7.63548 30.2047 7.62166C30.3008 7.60732 30.4711 7.58748 30.5812 7.57158C30.6913 7.55974 30.8731 7.51454 30.9832 7.47382C31.0937 7.43382 31.4433 7.28982 31.7617 7.15455C32.0794 7.02052 32.4852 6.84369 32.6647 6.76276C32.8437 6.68172 33.1606 6.58188 33.3663 6.5398C33.5748 6.4998 33.8911 6.6997 34.0692 6.98281C34.2498 7.26759 34.4637 7.532 34.5465 7.57158C34.6283 7.61366 34.7765 7.66852 34.8718 7.69532C34.9687 7.72306 35.2397 7.79994 35.4749 7.86748C35.7084 7.93459 36.0931 8.03464 36.3279 8.08981C36.5636 8.14218 36.8452 8.21999 36.9539 8.25999C37.0655 8.30207 37.2235 8.36846 37.3071 8.40898C37.39 8.44991 37.5356 8.4283 37.6328 8.35869C37.7299 8.29178 37.9001 8.19194 38.0088 8.13854C38.1193 8.0842 38.3111 8.01761 38.4359 7.99049C38.5605 7.96254 38.7413 7.96254 38.8367 7.99049C38.9341 8.01761 39.014 7.97345 39.014 7.89231C39.014 7.81106 39.0362 7.66686 39.0631 7.57158C39.0919 7.47766 39.1367 7.3239 39.1627 7.22821C39.1909 7.13481 39.2591 6.99081 39.3136 6.90936C39.3691 6.82842 39.4478 6.71746 39.4895 6.66333C39.5326 6.60879 39.6222 6.53211 39.6915 6.49097C39.7604 6.45108 39.9399 6.36245 40.092 6.29471C40.2426 6.22739 40.5143 6.12848 40.6936 6.07321C40.8742 6.01908 41.19 5.93129 41.3971 5.87737C41.6043 5.82344 42.1006 5.70064 42.5011 5.60693C42.9019 5.51217 43.3644 5.3796 43.5302 5.3129C43.6956 5.24475 43.9438 5.13327 44.0825 5.06615C44.2196 4.99727 44.5595 4.58927 44.8346 4.15634C45.1105 3.72424 45.473 3.4029 45.6383 3.44477C45.8029 3.48518 46.0634 3.55074 46.2146 3.59032C46.3683 3.63323 46.7062 3.75313 46.9678 3.86201C47.2302 3.96933 47.637 4.15749 47.8706 4.27915C48.1062 4.40102 48.4905 4.57795 48.725 4.67208C48.9595 4.76673 49.2975 4.87862 49.4771 4.91883C49.6566 4.95976 49.9273 5.01431 50.0792 5.04143C50.2314 5.06823 50.4785 5.1128 50.6315 5.1394C50.782 5.16579 51.021 5.23197 51.1593 5.28672C51.2956 5.34044 51.5222 5.31862 51.6606 5.2381C51.7981 5.15717 52.0132 5.0353 52.1372 4.96704C52.2617 4.89951 52.453 4.77805 52.5629 4.69712C52.6732 4.61587 52.8315 4.49442 52.9156 4.42668C52.9973 4.35873 53.1338 4.22606 53.2174 4.13172C53.299 4.0378 53.4229 3.87094 53.492 3.76248C53.5617 3.65422 53.6637 3.467 53.718 3.34534C53.7728 3.22347 53.8527 3.00176 53.8933 2.85412C53.9339 2.70451 54.0935 2.55075 54.2437 2.50981C54.3964 2.46888 54.6563 2.41319 54.8225 2.38722C54.9874 2.35906 55.4169 2.30545 55.7757 2.26358C56.1346 2.22462 56.7439 2.16758 57.13 2.14182C57.5157 2.11439 58.1721 2.09184 58.5861 2.09184C59.0003 2.09184 59.6901 2.10213 60.1178 2.11574C60.5456 2.1308 61.2223 2.17506 61.6229 2.21444C62.0224 2.25558 62.6552 2.31044 63.0291 2.33724C63.4012 2.36519 63.988 2.43096 64.3333 2.48529C64.6789 2.53922 65.3906 2.71584 65.914 2.87823C66.438 3.04113 67.0813 3.46108 67.3448 3.81245C67.6053 4.16538 68.474 3.8884 69.2756 3.19781C70.0767 2.50898 71.4998 1.94473 72.4374 1.94473C73.3775 1.94473 74.9924 1.4585 76.0248 0.862661C77.061 0.267965 78.6097 -0.1072 79.4644 0.0273438C80.3196 0.162511 81.8668 0.350769 82.9019 0.445626C83.938 0.539547 85.2475 0.80583 85.8134 1.03575C86.3787 1.26588 87.4977 1.93974 88.2976 2.53537C89.0977 3.12955 90.3742 3.05152 91.133 2.36343C91.893 1.67138 93.2484 1.29746 94.1434 1.52717C95.0413 1.75668 96.3502 2.50898 97.0555 3.19781C97.7581 3.8884 98.5838 4.49535 98.8873 4.55021C99.1902 4.60434 99.5193 4.64839 99.6147 4.64839C99.7113 4.64839 99.8919 4.67 100.017 4.69712C100.141 4.72371 100.31 4.76756 100.393 4.79582C100.476 4.8219 100.556 4.84444 100.569 4.84444C100.582 4.84444 100.74 4.87862 100.919 4.91883C101.098 4.95976 101.392 5.00319 101.572 5.01805C101.75 5.03031 102.022 5.09711 102.175 5.16402C102.326 5.23083 102.553 5.35862 102.676 5.44641C102.8 5.5342 103.004 5.6996 103.128 5.81555C103.252 5.92921 103.461 6.08505 103.591 6.15954C103.724 6.23445 104.209 6.44391 104.672 6.62562C105.134 6.80931 105.816 7.10842 106.188 7.28982C106.562 7.47382 106.967 7.64982 107.092 7.68327C107.215 7.71756 107.431 7.7561 107.569 7.7693C107.707 7.78311 107.927 7.76711 108.059 7.73189C108.19 7.69896 108.359 7.66415 108.435 7.65917C108.512 7.65148 108.625 7.66374 108.685 7.68327C108.748 7.70301 109.041 7.8361 109.339 7.97771C109.636 8.11922 110.127 8.32617 110.429 8.43371C110.734 8.54103 111.276 8.67412 111.635 8.72783C111.994 8.78071 112.297 8.82601 112.312 8.82601C112.326 8.82601 112.494 8.87058 112.689 8.92471C112.883 8.97812 113.085 9.06612 113.141 9.1217C113.196 9.17396 113.502 9.23079 113.817 9.24378C114.136 9.2577 114.654 9.32357 114.973 9.39141C115.288 9.45936 115.173 9.60304 115.471 9.71276C115.768 9.81936 116.163 9.86226 116.347 9.81032C116.534 9.75452 116.833 9.69977 117.013 9.68658C117.191 9.67286 117.504 9.68491 117.703 9.71276C117.903 9.73884 118.209 9.8153 118.381 9.88232C118.554 9.95037 118.807 10.105 118.945 10.2264C119.084 10.3492 119.222 10.513 119.255 10.5946C119.286 10.6746 119.318 10.7643 119.326 10.7918C119.335 10.8213 119.318 10.888 119.29 10.9421L119.248 10.9898L119.203 11.038C119.148 11.0878 118.927 11.1315 118.717 11.1354H118.525C118.332 11.1375 118.139 11.1354 117.947 11.1354C117.755 11.1315 117.566 11.0419 117.379 11.0372L117.196 11.0337C116.997 11.0736 116.774 11.104 116.694 11.0967L116.612 11.0927C116.528 11.0897 116.441 11.0887 116.358 11.0897C116.273 11.0916 116.19 11.0181 116.124 11.026L116.06 11.0337C115.539 11.0906 115.326 11.1375 114.827 11.1397L113.926 11.1375C113.024 11.1375 112.114 11.1338 111.203 11.1295C110.289 11.1277 109.371 11.1224 108.45 11.1177C107.533 11.1132 106.615 11.1964 105.7 11.1907C104.906 11.1834 104.084 11.0927 103.249 11.0938C102.416 11.0943 101.57 11.0977 100.73 11.1006C99.8873 11.1015 99.0505 11.104 98.2352 11.099L97.4162 11.0958C96.5624 11.0801 95.5656 11.0553 95.2031 11.0403C94.839 11.026 94.2444 11.0317 93.8817 11.0535C93.5186 11.0749 92.9247 11.0943 92.5627 11.0977C92.1997 11.1015 91.6048 11.1063 91.2428 11.1101C90.8786 11.1132 90.2719 11.1101 89.8908 11.104L89.5502 11.1006C89.212 11.0977 88.8757 11.0977 88.5371 11.0977C88.2011 11.099 87.8606 11.1015 87.5162 11.104C87.1726 11.1056 86.8229 11.0419 86.4638 11.0419C85.5877 11.0579 84.7263 11.1295 83.8711 11.1295C83.0158 11.1295 82.1684 11.1258 81.3204 11.1177C80.4742 11.1101 79.6313 11.1015 78.785 11.0938C77.9345 11.086 77.0781 10.8941 76.2205 10.8955C75.4858 10.9068 74.7545 11.1006 74.0151 11.104C73.2763 11.1063 72.539 11.1056 71.8004 11.104C71.0633 11.1015 70.3258 11.1006 69.5949 11.1006C68.8605 11.099 68.1333 11.1015 67.4055 11.1074L66.9528 11.099C66.6672 10.8921 66.0696 10.8818 65.6228 11.0749L64.4208 11.0624C63.9237 11.0567 63.4313 11.0535 62.9438 11.0518L62.4581 11.0499C61.9343 11.0518 61.4769 11.0547 61.4396 11.0567C61.4037 11.0585 61.3134 11.0633 61.2384 11.0674C61.1652 11.0713 61.0736 11.0767 61.0369 11.0774C60.9976 11.0801 60.6129 11.0815 60.1766 11.0824C59.7399 11.0836 59.0272 11.0977 58.5923 11.1177C58.1558 11.1354 57.4421 11.1354 57.0058 11.1199C56.5702 11.1015 55.8576 11.0878 55.4207 11.0878C54.9857 11.0878 54.6517 11.0337 54.6792 10.9678C54.706 10.9034 54.7171 10.8154 54.7042 10.774C54.6902 10.7345 54.6024 10.784 54.5114 10.8862C54.4192 10.9889 54.3222 11.0815 54.2952 11.0927C54.2687 11.104 53.9896 11.099 53.6744 11.0836L53.3727 11.0897C53.0699 11.0958 52.7621 11.099 52.4568 11.104C52.151 11.1063 51.8458 11.0656 51.5526 11.0674L51.2587 11.0713C50.9554 11.099 50.0914 11.0394 49.3363 10.9384L48.6352 10.9259C47.9337 10.9139 47.2198 11.0585 46.5095 11.0535C45.8017 11.0476 45.0877 11.046 44.3775 11.046H43.6653C42.887 11.0499 42.2432 11.0528 42.2334 11.0518C42.223 11.0518 42.207 11.0499 42.1966 11.0476C42.1891 11.046 42.1717 11.046 42.1626 11.0436C42.1541 11.0436 42.1375 11.0419 42.1279 11.0403C42.1189 11.0394 42.0588 10.9778 41.9936 10.9041L41.8734 10.9057C41.7528 10.9089 41.5076 11.0594 41.3867 11.0567C41.2639 11.0553 41.1391 11.0535 41.0133 11.0518C40.8883 11.0499 40.7604 11.0499 40.6309 11.0535C39.8612 11.0713 39.0718 11.013 38.2767 11.0158C37.4828 11.0181 36.6836 11.0801 35.8952 11.0749C35.1068 11.0704 35.0026 11.3789 34.251 11.3789C33.4989 11.3789 32.7729 11.3854 32.0872 11.4013C31.5773 11.4089 31.0687 11.4126 30.5573 11.4149C30.0475 11.4189 29.5375 11.4189 29.0237 11.4149C28.5152 11.4126 27.3281 11.0943 26.8144 11.0878L26.3008 11.0801C25.7354 11.0697 25.268 11.0579 25.2606 11.0567C25.2538 11.0547 25.2434 11.0528 25.2355 11.0518C25.2295 11.0499 25.2183 11.0476 25.211 11.046C25.2035 11.046 25.1926 11.0426 25.1864 11.0419C25.1778 11.0394 25.0395 11.0824 24.8768 11.1354L24.7305 11.1375C24.1122 11.1474 23.9624 11.0547 24.2863 11.0535H23.8162H23.2935C22.3287 11.0749 21.3721 11.0019 20.415 11.0108C19.4588 11.0217 18.965 11.3531 18.004 11.3571C17.045 11.359 16.8589 11.1213 15.882 11.1224L14.9063 11.1233C13.8101 11.0774 12.897 11.038 12.8745 11.0337C12.8517 11.0296 12.815 11.0231 12.7927 11.0194C12.7732 11.0158 12.7363 11.0099 12.714 11.0049C12.6915 11.0019 12.6564 10.9958 12.6343 10.9917C12.6114 10.9879 12.5851 10.9858 12.5726 10.9879C12.5624 10.9889 12.5361 10.9917 12.5138 10.9948C12.4904 10.9978 12.4646 11.0019 12.453 11.0019C12.4419 11.0049 12.3615 11.0137 12.2712 11.0246L12.1771 11.0317C12.082 11.038 11.9816 11.0426 11.8793 11.046C11.7767 11.0476 11.6722 10.9816 11.5752 10.9816L11.4736 10.981C11.3754 11.013 10.7229 11.0815 10.0243 11.1315H9.39993C8.77959 11.1295 8.16148 11.1277 7.54963 11.1258C6.93756 11.1224 6.33037 11.1884 5.72043 11.1899C5.11165 11.1907 4.50447 11.1281 3.89516 11.1375C3.57014 11.1354 3.22305 11.1404 2.87289 11.1445C2.52252 11.1493 2.16567 11.0656 1.82103 11.0674C1.47554 11.0674 1.14139 11.1518 0.835359 11.1354L0.529432 11.1213C0.246842 11.0836 0.0120928 11.0237 0.00859226 10.9889C0.00487956 10.9537 0 10.8779 0 10.8205V10.6069Z" fill="#E5C8A2" fill-rule="evenodd"/>
<path clip-rule="evenodd" d="M26.0598 43.8532C26.8035 44.2364 27.7029 44.4858 28.6041 44.2528C28.95 44.105 29.3296 43.7366 29.4694 43.3736C29.6064 42.8722 29.3133 42.4724 28.8984 42.2573C28.0151 41.8904 26.7864 41.8094 26.4062 40.7762C26.4237 40.3781 26.4758 39.9949 26.683 39.6606C27.4963 39.0961 28.6208 39.063 29.5564 39.3802C29.8145 39.5616 29.6943 39.9125 29.6415 40.1442C28.9673 39.9448 28.119 39.5959 27.4437 40.0281C27.1504 40.2116 26.9939 40.5443 27.1837 40.8263C28.2404 41.5914 30.5762 41.5591 30.179 43.5041C30.0412 44.2878 29.2091 44.7698 28.4824 44.9348C27.6177 45.1166 26.7344 44.9017 26.024 44.503C25.9732 44.3024 25.9198 44.0202 26.0598 43.8532Z" fill="#E5C8A2" fill-rule="evenodd"/>
<path clip-rule="evenodd" d="M33.5204 39.2252C34.8565 39.075 35.9948 39.3435 37.2604 39.3108C37.3506 39.4271 37.4409 39.6793 37.3506 39.8663C36.7369 40.0513 35.9048 39.6302 35.6163 40.2367L35.5253 44.9611C35.3255 45.029 34.965 45.029 34.9108 44.7902V39.9831L34.7847 39.8663H33.2301C33.086 39.6623 33.0494 39.075 33.5204 39.2252Z" fill="#E5C8A2" fill-rule="evenodd"/>
<path clip-rule="evenodd" d="M40.3344 39.2203C41.3057 39.1003 42.124 39.288 43.0962 39.2203C43.2075 39.3565 43.1653 39.5799 43.2075 39.7508L43.0962 39.8353L40.931 39.8693C40.7359 40.3292 40.7359 41.0982 40.9987 41.5095C41.6656 41.423 42.4164 41.4052 43.0962 41.4741C43.2215 41.5926 43.1503 41.8311 43.1653 42.0017L43.0688 42.09C42.2908 42.2593 41.5968 41.9171 40.8746 42.2076C40.7089 42.8382 40.9022 43.4535 40.8333 44.1703C41.0973 44.477 41.5562 44.2702 41.8326 44.3731L41.9995 44.3054L43.0962 44.3401C43.2764 44.477 43.193 44.7658 43.1653 44.9545C42.2356 45.0058 41.2772 45.0241 40.3066 44.9545C40.4177 42.9409 40.2223 41.2857 40.3344 39.2203Z" fill="#E5C8A2" fill-rule="evenodd"/>
<path clip-rule="evenodd" d="M51.9361 44.6356C51.0893 42.8277 50.3192 40.9886 49.3567 39.2302C49.1056 39.1981 48.7006 39.0984 48.508 39.3146C47.7002 41.1557 46.8918 43.0108 46.1196 44.884C46.2345 45.0981 46.4661 44.934 46.7185 45.0001C47.3149 44.221 47.3534 43.2261 48.1043 42.5293L50.0873 42.5652C50.6651 43.2936 50.8019 44.1701 51.2808 44.917L51.7056 44.9511C51.9159 44.9669 51.9556 44.802 51.9361 44.6356ZM49.5272 41.8658C49.1378 41.8317 48.7494 41.9196 48.3584 41.7463C48.5343 41.245 48.7096 40.6602 49.0997 40.2986C49.3132 40.7806 49.6425 41.2104 49.7017 41.7463L49.5272 41.8658Z" fill="#E5C8A2" fill-rule="evenodd"/>
<path clip-rule="evenodd" d="M55.0584 39.2528C55.2715 39.3009 55.763 38.9845 55.7858 39.3846C55.8704 40.087 55.594 40.822 55.8282 41.4227H56.0858C57.132 40.6538 58.0112 40.0026 59.0164 39.2528L59.9998 39.3009V39.4523C58.9307 40.2707 57.7323 40.9366 56.8538 41.8243C57.6887 42.9078 59.1024 43.8254 59.8515 44.9113C59.5734 45.0297 59.1231 45.0297 58.8651 44.9113C58.0112 43.9425 56.9405 43.0421 55.9989 42.1071C55.7217 42.0401 55.7449 42.2745 55.6775 42.3911L55.5721 44.8619C55.3558 44.9113 54.9718 44.9623 54.864 44.7942C54.8017 42.9078 54.9718 41.1381 55.0584 39.2528Z" fill="#E5C8A2" fill-rule="evenodd"/>
<path clip-rule="evenodd" d="M63.019 39.2657C63.1374 39.1139 63.3807 39.2154 63.5389 39.1819C64.0202 39.8252 63.4195 40.7731 63.8799 41.4671C64.9403 41.5861 65.9611 41.3988 67.0631 41.4671L67.3012 41.2133C67.3624 40.5188 67.3211 40.0293 67.3405 39.3499C67.5223 39.2657 67.7613 39.1645 67.9621 39.2657C68.1821 41.2817 67.9621 42.9231 67.9621 44.9214C67.7818 44.94 67.602 45.0242 67.3813 44.9898L67.2435 44.8377C67.3012 43.8711 67.3624 43.1768 67.2019 42.1961C66.1609 42.0615 65.0191 42.113 63.8799 42.1438L63.6998 42.3483L63.5989 44.9214C63.46 45.057 63.2196 44.9723 63.019 44.9898L62.9193 44.8377C62.8811 42.7535 62.9796 41.0276 63.019 39.2657Z" fill="#E5C8A2" fill-rule="evenodd"/>
<path clip-rule="evenodd" d="M75.7755 39.7925C74.8113 39.0656 73.6239 39.0169 72.506 39.4777C71.6804 39.8737 71.2164 40.6996 71.0253 41.4939C70.8035 42.7298 71.2503 43.9502 72.3838 44.6604C73.2974 45.0079 74.5536 45.2215 75.3968 44.6269C76.1517 44.0993 76.6352 43.3566 76.7733 42.4824C76.8763 41.46 76.5309 40.4855 75.7755 39.7925ZM76.0183 42.7997C75.7212 43.5164 75.0355 44.2294 74.159 44.3285C73.404 44.3285 72.6494 44.2294 72.1939 43.6479C71.6838 43.0334 71.4901 42.1522 71.771 41.3712C71.9304 40.8734 72.2636 40.3902 72.7709 40.0929C73.545 39.6599 74.4738 39.8764 75.2114 40.2078C75.9294 40.9056 76.3162 41.8208 76.0183 42.7997Z" fill="#E5C8A2" fill-rule="evenodd"/>
<path clip-rule="evenodd" d="M79.8033 39.2654C79.9447 39.0815 80.1276 39.2984 80.3287 39.2306L80.4717 39.383L80.5334 43.2713C80.6338 43.6378 81.0203 44.0064 81.4457 44.1555C81.7481 44.3873 82.1129 44.1233 82.4166 44.355C83.1289 44.2039 83.8775 43.8708 84.0824 43.2379L84.1189 39.2654C84.2629 39.1302 84.5468 39.1828 84.7067 39.2306L84.8509 39.431L84.8105 43.3894C84.7489 44.0064 84.0824 44.6058 83.3912 44.8401C82.3179 45.2068 81.079 44.9053 80.2301 44.321C79.9034 43.9875 79.7816 43.6041 79.7017 43.1888L79.8033 39.2654Z" fill="#E5C8A2" fill-rule="evenodd"/>
<path clip-rule="evenodd" d="M87.8509 43.8459C88.7096 44.2087 89.7674 44.5066 90.6986 44.045C91.1891 43.7815 91.4092 43.287 91.3011 42.8074C90.4981 41.6047 87.468 42.1475 88.2891 40.004C88.6377 39.4442 89.3298 39.2287 89.9853 39.1792C90.5149 39.2617 91.1538 39.2287 91.518 39.5744L91.4826 40.1205C90.8433 39.972 89.931 39.7076 89.2381 40.0368C88.8168 40.2017 88.9646 40.6484 89.1087 40.9133C90.1121 41.5721 92.1214 41.5388 92.0106 43.1381C92.0288 43.8143 91.556 44.475 90.863 44.7516C89.968 45.1841 88.6906 45.0017 87.8509 44.5892C87.8509 44.3423 87.6491 44.0774 87.8509 43.8459Z" fill="#E5C8A2" fill-rule="evenodd"/>
<path clip-rule="evenodd" d="M94.9823 39.2217C96.0364 39.1042 96.6924 39.2732 97.7621 39.2217C97.818 39.3923 97.8629 39.6136 97.7906 39.7833L95.4959 39.9514C95.3967 40.3741 95.3967 41.0014 95.4959 41.3745C96.2078 41.5279 96.9639 41.4263 97.7621 41.4601C97.8767 41.6136 97.8341 41.8844 97.7906 42.0677L95.4669 42.1531C95.2966 42.7806 95.4959 43.5259 95.439 44.1022L95.6657 44.3043L97.7906 44.3895C97.818 44.5598 97.9061 44.8656 97.719 45.0001H95.0256L94.9253 44.9164V39.3409L94.9823 39.2217Z" fill="#E5C8A2" fill-rule="evenodd"/>
<path clip-rule="evenodd" d="M100.746 39.2873C100.746 38.4887 101.399 37.8359 102.205 37.8359C103.007 37.8359 103.657 38.4887 103.657 39.2873C103.657 40.0929 103.007 40.7464 102.205 40.7464C101.399 40.7464 100.746 40.0929 100.746 39.2873ZM103.433 39.2883C103.433 38.5986 102.915 38.0598 102.204 38.0598C101.49 38.0598 100.97 38.5986 100.97 39.2883C100.97 39.9833 101.49 40.5225 102.204 40.5225C102.915 40.5225 103.433 39.9833 103.433 39.2883ZM102.965 40.0747H102.714L102.231 39.3513H101.848V40.0747H101.642V38.5076H102.383C102.832 38.5076 102.985 38.6626 102.985 38.9213C102.985 39.23 102.752 39.3439 102.45 39.3513L102.965 40.0747ZM102.178 39.1776C102.415 39.1776 102.761 39.2227 102.761 38.8369C102.761 38.5443 102.549 38.5076 102.344 38.5076H101.865V39.1776H102.178Z" fill="#E5C8A2" fill-rule="evenodd"/>
</svg>