<?xml version="1.0" encoding="UTF-8" standalone="no"?>
<!-- Generator: Adobe Illustrator 19.0.0, SVG Export Plug-In . SVG Version: 6.00 Build 0)  -->

<svg
   version="1.1"
   id="layer"
   x="0px"
   y="0px"
   viewBox="-153 -46 2500 2500"
   xml:space="preserve"
   sodipodi:docname="texas-de-brazil-logo-vector.svg"
   width="2500"
   height="2500"
   inkscape:version="1.2.2 (b0a8486541, 2022-12-01)"
   xmlns:inkscape="http://www.inkscape.org/namespaces/inkscape"
   xmlns:sodipodi="http://sodipodi.sourceforge.net/DTD/sodipodi-0.dtd"
   xmlns="http://www.w3.org/2000/svg"
   xmlns:svg="http://www.w3.org/2000/svg"><defs
   id="defs15" /><sodipodi:namedview
   id="namedview13"
   pagecolor="#ffffff"
   bordercolor="#000000"
   borderopacity="0.25"
   inkscape:showpageshadow="2"
   inkscape:pageopacity="0.0"
   inkscape:pagecheckerboard="0"
   inkscape:deskcolor="#d1d1d1"
   showgrid="false"
   inkscape:zoom="0.45441371"
   inkscape:cx="1212.5514"
   inkscape:cy="1278.5706"
   inkscape:window-width="1920"
   inkscape:window-height="1008"
   inkscape:window-x="0"
   inkscape:window-y="0"
   inkscape:window-maximized="1"
   inkscape:current-layer="layer" />
<style
   type="text/css"
   id="style2">
	.st0{fill:#821517;}
</style>



<g
   id="g803"
   transform="matrix(4.1659723,0,0,4.1659723,373.57891,38.36095)"><path
     d="M -23.9,279.8 2.4,220.6 -22.9,182.4 -9.6,179.6 8.2,214.8 34.8,170.4 16.6,224.6 48.3,254.9 32.6,265.2 10.9,234 m 353.4,-54.7 -1.4,9.3 25.1,1 -34.3,78.2 39.1,6.5 3.2,-14.4 -27.1,-1.4 37,-76.1"
     id="path4" /><path
     d="m -106.5,363.2 c -0.9,0 -1.6,-0.1 -2.3,-0.4 -0.6,-0.2 -1.2,-0.6 -1.6,-1 -0.4,-0.4 -0.8,-1 -1,-1.6 -0.3,-0.6 -0.4,-1.3 -0.6,-2 -0.1,-0.7 -0.2,-1.5 -0.2,-2.5 v -5.8 c 0,-0.9 0,-1.7 0.2,-2.5 0.1,-0.7 0.3,-1.4 0.6,-2 0.3,-0.6 0.6,-1.2 1,-1.6 0.4,-0.4 0.9,-0.8 1.6,-1 0.6,-0.2 1.4,-0.4 2.3,-0.4 0.9,0 1.8,0.1 2.4,0.4 0.7,0.3 1.2,0.7 1.6,1.2 0.4,0.5 0.7,1.2 0.9,1.9 0.2,0.7 0.3,1.6 0.4,2.5 0,0.1 0,0.4 0,0.7 h -2.9 v -0.6 c 0,-0.4 0,-0.7 0,-1 0,-0.3 -0.1,-0.6 -0.1,-0.9 -0.1,-0.3 -0.1,-0.6 -0.3,-0.8 -0.1,-0.2 -0.3,-0.4 -0.4,-0.6 -0.2,-0.2 -0.4,-0.3 -0.7,-0.4 -0.3,-0.1 -0.6,-0.1 -0.9,-0.1 -0.5,0 -0.9,0.1 -1.2,0.2 -0.3,0.1 -0.6,0.3 -0.8,0.6 -0.2,0.2 -0.3,0.6 -0.4,1 -0.1,0.4 -0.2,0.8 -0.2,1.2 0,0.4 0,0.9 0,1.4 v 7.2 c 0,0.5 0,0.9 0.1,1.3 0,0.4 0.1,0.8 0.2,1.2 0.1,0.4 0.3,0.7 0.5,1 0.2,0.3 0.4,0.5 0.8,0.6 0.3,0.2 0.7,0.2 1.1,0.2 0.4,0 0.8,-0.1 1.1,-0.2 0.3,-0.2 0.6,-0.4 0.7,-0.6 0.2,-0.3 0.3,-0.6 0.4,-1 0.1,-0.4 0.2,-0.8 0.2,-1.2 0,-0.4 0,-0.8 0,-1.3 v -0.7 h 2.9 v 0.7 c 0,1 -0.1,2 -0.3,2.8 -0.2,0.8 -0.5,1.5 -0.9,2.1 -0.4,0.6 -1,1.1 -1.7,1.4 -0.6,0.4 -1.5,0.6 -2.5,0.6 m 20,-0.2 v -9.4 h 5.1 v 9.4 h 2.9 v -20.3 h -2.9 v 8.7 h -5.1 v -8.7 h -2.9 V 363 m 31.5,-0.1 c 0.7,-0.2 1.2,-0.6 1.7,-1 0.4,-0.4 0.8,-0.9 1.1,-1.6 0.3,-0.6 0.5,-1.3 0.6,-2.1 0.1,-0.7 0.2,-1.6 0.2,-2.5 v -13 h -2.9 v 13 c 0,0.6 0,1.2 0,1.6 0,0.4 -0.1,0.9 -0.2,1.4 -0.1,0.5 -0.3,0.9 -0.5,1.1 -0.2,0.3 -0.5,0.5 -0.9,0.7 -0.4,0.2 -0.8,0.3 -1.3,0.3 -0.5,0 -1,-0.1 -1.3,-0.3 -0.4,-0.2 -0.6,-0.4 -0.9,-0.7 -0.2,-0.3 -0.4,-0.7 -0.5,-1.1 -0.1,-0.5 -0.2,-0.9 -0.2,-1.4 0,-0.4 0,-0.9 0,-1.6 v -13 h -2.9 v 13 c 0,0.9 0.1,1.8 0.2,2.5 0.1,0.7 0.3,1.4 0.6,2.1 0.3,0.6 0.6,1.2 1.1,1.6 0.4,0.4 1,0.7 1.7,1 0.7,0.2 1.4,0.3 2.3,0.3 0.6,0 1.4,-0.1 2.1,-0.3 m 18.8,0.1 v -9.4 h 2.2 l 2.9,9.4 h 2.9 l -3.3,-10.1 c 0.8,-0.3 1.5,-0.9 1.9,-1.7 0.4,-0.8 0.6,-1.8 0.6,-3 0,-1.9 -0.5,-3.3 -1.6,-4.2 -1.1,-0.8 -2.7,-1.3 -4.9,-1.3 H -42 V 363 m 2.9,-18.1 h 0.7 c 1.2,0 2.1,0.3 2.7,0.8 0.6,0.5 0.9,1.3 0.9,2.5 0,1.2 -0.3,2 -0.9,2.5 -0.6,0.5 -1.5,0.8 -2.7,0.8 h -0.7 z m 22.3,18.1 v -9.4 h 2.2 l 2.9,9.4 h 2.9 l -3.3,-10.1 c 0.8,-0.3 1.5,-0.9 1.9,-1.7 0.4,-0.8 0.6,-1.8 0.6,-3 0,-1.9 -0.5,-3.3 -1.6,-4.2 -1.1,-0.8 -2.7,-1.3 -4.9,-1.3 h -3.6 V 363 m 2.9,-18.1 h 0.7 c 1.2,0 2.1,0.3 2.7,0.8 0.6,0.5 0.9,1.3 0.9,2.5 0,1.2 -0.3,2 -0.9,2.5 -0.6,0.5 -1.5,0.8 -2.7,0.8 h -0.7 z m 21,18.1 1.1,-5.1 H 8.9 L 10,363 h 2.9 L 8.6,342.7 h -3 L 1.3,363 m 5.8,-16 1.4,8.7 H 5.6 Z m 22.4,16.2 c 1.5,0 2.8,-0.4 3.7,-1.3 0.9,-0.8 1.4,-2 1.4,-3.5 0,-2.2 -1,-4 -2.9,-5.6 l -3.6,-2.9 c -1,-0.8 -1.5,-1.7 -1.5,-2.9 0,-0.7 0.2,-1.2 0.6,-1.6 0.4,-0.4 0.9,-0.6 1.6,-0.6 0.9,0 1.5,0.3 2,0.8 0.4,0.6 0.7,1.3 0.9,2.2 0,0.3 0,0.5 0.1,0.6 l 2.9,-0.7 c 0,-0.3 -0.1,-0.5 -0.1,-0.7 -0.2,-1.5 -0.8,-2.6 -1.8,-3.4 -1,-0.8 -2.3,-1.2 -3.9,-1.2 -1.5,0 -2.8,0.4 -3.7,1.3 -0.9,0.9 -1.4,2.1 -1.4,3.6 0,1 0.2,1.9 0.6,2.7 0.4,0.8 0.9,1.5 1.6,2 l 3.6,2.9 c 0.3,0.3 0.6,0.5 0.8,0.7 0.2,0.2 0.4,0.4 0.7,0.7 0.2,0.3 0.4,0.6 0.5,1 0.1,0.4 0.2,0.8 0.2,1.2 0,1.5 -0.7,2.2 -2.2,2.2 -1.8,0 -2.8,-1.4 -2.9,-4.3 l -2.9,0.7 c 0.1,1.9 0.6,3.3 1.6,4.4 0.9,1.1 2.3,1.7 4.1,1.7 m 22.2,0 c 1,0 1.8,-0.2 2.6,-0.5 0.7,-0.3 1.3,-0.8 1.7,-1.4 0.4,-0.6 0.7,-1.3 0.9,-2.1 0.2,-0.8 0.3,-1.7 0.3,-2.8 v -0.7 h -2.9 v 0.7 c 0,0.5 0,0.9 0,1.3 0,0.4 -0.1,0.8 -0.2,1.2 -0.1,0.4 -0.2,0.7 -0.4,1 -0.2,0.3 -0.4,0.5 -0.7,0.6 -0.3,0.2 -0.7,0.2 -1.1,0.2 -0.4,0 -0.8,-0.1 -1.1,-0.2 -0.3,-0.2 -0.6,-0.4 -0.8,-0.6 -0.2,-0.3 -0.3,-0.6 -0.5,-1 -0.1,-0.4 -0.2,-0.8 -0.2,-1.2 0,-0.4 -0.1,-0.8 -0.1,-1.3 v -7.2 c 0,-0.6 0,-1 0,-1.4 0,-0.4 0.1,-0.8 0.2,-1.2 0.1,-0.4 0.2,-0.7 0.4,-1 0.2,-0.2 0.5,-0.4 0.8,-0.6 0.3,-0.2 0.7,-0.2 1.2,-0.2 0.4,0 0.7,0 0.9,0.1 0.3,0.1 0.5,0.2 0.7,0.4 0.2,0.2 0.3,0.4 0.4,0.6 0.1,0.2 0.2,0.5 0.3,0.8 0.1,0.3 0.1,0.6 0.1,0.9 0,0.3 0,0.6 0,1 v 0.6 h 2.9 c 0,-0.3 0,-0.5 0,-0.7 0,-1 -0.2,-1.8 -0.4,-2.5 -0.2,-0.7 -0.5,-1.3 -0.9,-1.9 -0.4,-0.5 -1,-1 -1.6,-1.2 -0.7,-0.3 -1.5,-0.4 -2.4,-0.4 -0.9,0 -1.6,0.1 -2.3,0.4 -0.6,0.2 -1.2,0.6 -1.6,1 -0.4,0.4 -0.8,1 -1,1.6 -0.3,0.6 -0.4,1.3 -0.6,2 -0.1,0.7 -0.2,1.5 -0.2,2.5 v 5.8 c 0,0.9 0.1,1.7 0.2,2.5 0.1,0.7 0.3,1.4 0.6,2 0.3,0.6 0.6,1.2 1,1.6 0.4,0.4 0.9,0.8 1.6,1 0.6,0.1 1.3,0.3 2.2,0.3 m 18.6,-0.2 1.1,-5.1 H 75 l 1.1,5.1 H 79 L 74.7,342.7 H 71.8 L 67.4,363 m 5.8,-16 1.4,8.7 h -2.9 z m 20.1,16 v -9.4 h 2.2 l 2.9,9.4 h 2.9 L 98,352.8 c 0.8,-0.3 1.5,-0.9 1.9,-1.7 0.4,-0.8 0.6,-1.8 0.6,-3 0,-1.9 -0.5,-3.3 -1.6,-4.2 -1.1,-0.8 -2.7,-1.3 -4.9,-1.3 H 90.4 V 363 m 2.9,-18.1 H 94 c 1.2,0 2.1,0.3 2.7,0.8 0.6,0.5 0.9,1.3 0.9,2.5 0,1.2 -0.3,2 -0.9,2.5 -0.6,0.5 -1.5,0.8 -2.7,0.8 h -0.7 z m 19.5,18.1 h 2.9 v -20.3 h -2.9 z m 17.4,0 1.1,-5.1 h 3.6 l 1.1,5.1 h 2.9 l -4.3,-20.3 h -2.9 l -4.3,20.3 m 5.7,-16 1.4,8.7 h -2.9 z m 131.3,16.2 c 1.6,0 2.8,-0.4 3.7,-1.3 0.9,-0.8 1.4,-2 1.4,-3.5 0,-2.2 -1,-4 -2.9,-5.6 l -3.6,-2.9 c -1,-0.8 -1.4,-1.7 -1.4,-2.9 0,-0.7 0.2,-1.2 0.6,-1.6 0.4,-0.4 0.9,-0.6 1.6,-0.6 0.9,0 1.5,0.3 2,0.8 0.5,0.6 0.7,1.3 0.9,2.2 0,0.3 0,0.5 0.1,0.6 l 2.9,-0.7 c 0,-0.3 -0.1,-0.5 -0.1,-0.7 -0.2,-1.5 -0.8,-2.6 -1.8,-3.4 -1,-0.8 -2.3,-1.2 -3.9,-1.2 -1.5,0 -2.8,0.4 -3.7,1.3 -0.9,0.9 -1.4,2.1 -1.4,3.6 0,1 0.2,1.9 0.6,2.7 0.4,0.8 0.9,1.5 1.6,2 l 3.6,2.9 c 0.3,0.3 0.6,0.5 0.8,0.7 0.2,0.2 0.4,0.4 0.7,0.7 0.2,0.3 0.4,0.6 0.5,1 0.1,0.4 0.2,0.8 0.2,1.2 0,1.5 -0.7,2.2 -2.2,2.2 -1.8,0 -2.8,-1.4 -2.9,-4.3 l -2.9,0.7 c 0.1,1.9 0.6,3.3 1.6,4.4 0.8,1.1 2.2,1.7 4,1.7 m 22,-0.2 v -17.7 h 3.6 v -2.6 h -10.1 v 2.6 h 3.6 V 363 m 25.7,0 v -2.2 h -5.1 v -7.2 h 3.6 v -2.2 h -3.6 v -6.5 h 5.1 v -2.2 h -8 V 363 m 21.1,0 1.1,-5.1 h 3.6 l 1.1,5.1 h 2.9 l -4.3,-20.3 h -2.9 l -4.3,20.3 m 5.7,-16 1.4,8.7 h -2.9 z m 20,16 v -6.5 l 1.4,-2.9 3.6,9.4 h 3.6 l -5.1,-12.3 4.4,-8 h -3.6 l -4.3,8.7 v -8.7 h -2.9 V 363 m 25.3,0 v -9.4 h 5.1 v 9.4 h 2.9 v -20.3 h -2.9 v 8.7 h -5.1 v -8.7 h -2.9 V 363 m 28.8,0.2 c 1,0 1.9,-0.2 2.6,-0.5 0.7,-0.3 1.3,-0.8 1.7,-1.4 0.4,-0.6 0.7,-1.3 0.9,-2.1 0.2,-0.8 0.3,-1.7 0.3,-2.8 V 349 c 0,-2.1 -0.4,-3.8 -1.3,-4.9 -0.9,-1.1 -2.3,-1.7 -4.3,-1.7 -1,0 -1.9,0.2 -2.6,0.4 -0.7,0.3 -1.3,0.7 -1.7,1.3 -0.4,0.6 -0.7,1.3 -0.9,2.1 -0.2,0.8 -0.3,1.7 -0.3,2.8 v 7.4 c 0,1.1 0.1,2 0.3,2.8 0.2,0.8 0.5,1.5 0.9,2.1 0.4,0.6 1,1 1.7,1.4 0.8,0.3 1.7,0.5 2.7,0.5 m -2.1,-3.3 c -0.4,-0.6 -0.6,-1.5 -0.6,-2.7 v -8.8 c 0,-1.2 0.2,-2.1 0.6,-2.6 0.4,-0.6 1.1,-0.9 2.1,-0.9 1,0 1.7,0.3 2.1,0.9 0.4,0.6 0.6,1.5 0.6,2.6 v 8.8 c 0,1.2 -0.2,2.1 -0.6,2.7 -0.4,0.6 -1.1,0.9 -2.1,0.9 -1,0 -1.7,-0.3 -2.1,-0.9 m 27.9,2.9 c 0.7,-0.2 1.2,-0.6 1.7,-1 0.4,-0.4 0.8,-0.9 1.1,-1.6 0.3,-0.6 0.5,-1.3 0.6,-2.1 0.1,-0.7 0.2,-1.6 0.2,-2.5 v -13 H 420 v 13 c 0,0.6 0,1.2 0,1.6 0,0.4 -0.1,0.9 -0.2,1.4 -0.1,0.5 -0.3,0.9 -0.5,1.1 -0.2,0.3 -0.5,0.5 -0.8,0.7 -0.4,0.2 -0.8,0.3 -1.3,0.3 -0.5,0 -1,-0.1 -1.3,-0.3 -0.4,-0.2 -0.6,-0.4 -0.8,-0.7 -0.2,-0.3 -0.4,-0.7 -0.5,-1.1 -0.1,-0.5 -0.2,-0.9 -0.2,-1.4 0,-0.4 0,-0.9 0,-1.6 v -13 h -2.9 v 13 c 0,0.9 0.1,1.8 0.2,2.5 0.1,0.7 0.3,1.4 0.6,2.1 0.3,0.6 0.6,1.2 1.1,1.6 0.4,0.4 1,0.7 1.7,1 0.7,0.2 1.5,0.3 2.3,0.3 0.4,0.1 1.2,-0.1 1.9,-0.3 m 21.2,0.4 c 1.5,0 2.8,-0.4 3.7,-1.3 0.9,-0.8 1.4,-2 1.4,-3.5 0,-2.2 -1,-4 -2.9,-5.6 l -3.6,-2.9 c -1,-0.8 -1.4,-1.7 -1.4,-2.9 0,-0.7 0.2,-1.2 0.6,-1.6 0.4,-0.4 0.9,-0.6 1.6,-0.6 0.9,0 1.5,0.3 2,0.8 0.5,0.6 0.7,1.3 0.9,2.2 0,0.3 0,0.5 0.1,0.6 l 2.9,-0.7 c 0,-0.3 -0.1,-0.5 -0.1,-0.7 -0.2,-1.5 -0.8,-2.6 -1.8,-3.4 -1,-0.8 -2.3,-1.2 -3.9,-1.2 -1.5,0 -2.8,0.4 -3.7,1.3 -0.9,0.9 -1.4,2.1 -1.4,3.6 0,1 0.2,1.9 0.6,2.7 0.4,0.8 0.9,1.5 1.6,2 l 3.6,2.9 c 0.3,0.3 0.6,0.5 0.8,0.7 0.2,0.2 0.4,0.4 0.7,0.7 0.2,0.3 0.4,0.6 0.5,1 0.1,0.4 0.2,0.8 0.2,1.2 0,1.5 -0.7,2.2 -2.2,2.2 -1.8,0 -2.8,-1.4 -2.9,-4.3 l -2.9,0.7 c 0.1,1.9 0.7,3.3 1.6,4.4 0.8,1.1 2.2,1.7 4,1.7 m 24.9,-0.2 v -2.2 h -5.1 v -7.2 h 3.6 v -2.2 h -3.6 v -6.5 h 5.1 v -2.2 h -8 V 363"
     id="path6" /><path
     d="m -83.2,312.6 h -5.6 l -5.6,-128.2 -30.1,1.5 -1.9,-19.3 75.6,-1.5 -2.6,20.8 C -60.5,185 -67.6,184 -74.8,183 m 26.9,-5.9 -2.2,100.3 22.8,-0.2 v -8.4 l -14.8,0.8 4.4,-47.2 11.3,-1 0.7,-10.7 h -12.2 l 0.8,-23.5 12.6,-0.1 0.2,-9.3 m 110,93.8 H 71.5 l -6.7,-31.1 -11.4,-0.3 -5,40.7 H 36.6 l 20.6,-104 m 6.7,56.7 -5.8,-33 -3.9,32.1 z m 295.5,30 h -14.2 l -6.7,-31.1 -11.4,-0.3 -5,40.7 h -11.7 l 20.6,-104 m 6.7,56.7 -5.8,-33 -3.9,32.1 z M 101.4,206.7 c 0,-5.3 1.9,-10.6 5.8,-15.8 2.8,-3.9 6.9,-7.8 12.2,-11.9 l -4,-2.8 c -4.9,2.2 -9.1,4.4 -12.6,6.6 -4.8,3.1 -8.5,6.2 -11.2,9.6 -3.2,4.1 -4.8,8.4 -4.8,12.9 0,5.1 1.6,10.3 4.7,15.6 2.9,4.5 5.8,9 8.7,13.5 3.1,5.5 4.7,11 4.7,16.5 0,10.2 -4.3,17.6 -12.9,22.2 l 1,6.1 c 6.9,-2.5 12.2,-5.9 15.9,-10.1 4.2,-4.8 6.2,-10.6 6.2,-17.5 0,-4.3 -1.2,-9.2 -3.5,-14.7 -2.3,-5.5 -4.6,-10.8 -6.9,-16.1 -2.2,-5.2 -3.3,-9.9 -3.3,-14.1 m 109,-43.8 5.8,-0.2 c 8.4,0 15.3,1.8 20.9,5.4 6.5,4.2 9.8,10.4 9.8,18.4 0,6 -2.4,12.6 -7.1,19.8 -1.3,2 -3.9,5.4 -7.7,10.2 8.4,3.4 14.9,7.6 19.7,12.5 5.9,6.1 8.8,13.2 8.8,21.2 0,11.1 -5.7,21.1 -17.2,30 -8.9,7 -19.7,12.4 -32.5,16.3 m 17.8,-91.1 c 2.6,-3.5 3.9,-7.1 3.9,-10.7 0,-7.5 -3.3,-13.1 -9.8,-16.7 l -2.3,35.5 c 3.6,-2.8 6.3,-5.5 8.2,-8.1 m 7.7,64 c 5.8,-5.7 8.7,-11.2 8.7,-16.6 0,-6.7 -2.3,-12.3 -6.8,-16.7 -4,-3.9 -9.5,-6.9 -16.4,-8.8 l -0.8,54.1 c 7.2,-5.1 12.3,-9.1 15.3,-12 m 34.5,-89.9 c 10.8,1.6 21.4,5.3 27.9,11.2 7.4,6.6 11.2,15.2 11.2,25.6 0,8.9 -2.5,16.4 -7.4,22.4 -4.1,5.1 -10.6,9.8 -19.4,14.2 l 23.9,16.6 -5.8,6.4 -21.7,-19.3 0.3,24.1 h -11.5 m 23.8,-46.2 c 3.5,-5.5 5.2,-11.4 5.2,-17.8 0,-5.5 -1.2,-10.6 -3.5,-15.2 -2.3,-4.6 -5.8,-8.2 -10.4,-10.9 l -4.4,57.3 c 5.8,-4.2 10.2,-8.6 13.1,-13.4 m 122.7,-52.3 -4.8,7.6 5.6,5.8 5.5,-7.6 m -0.3,66.7 c 3.8,-41.7 -5.2,-55.5 -5.2,-55.5 0,0 -13.1,30.6 -7.4,59.8 1.3,6.8 4.4,12.8 7.5,18.6 2.4,-6.3 4.3,-14 5.1,-22.9 m 8,47.4 44.8,2.5 v -24 l -29.4,7.5 0.8,-118.4 -11.9,-0.5 m -290.6,79.2 c 1.1,2.3 2.6,3.9 4.4,6.1 v -30 c -2,1.8 -3.6,4.1 -4.9,6.9 -1.3,2.9 -1.9,4.7 -1.9,7.5 0.1,3.1 0.8,6.2 2.4,9.5 m 10.4,21.3 c -40.5,-32.7 -6,-54.2 -6,-54.2 v -28.1 h 8.3 l -2.3,82.3 m 26.8,-34.2 c 0,0 0.1,-4 -1.4,-7.9 -1,-2.6 -3.1,-4 -3.1,-4 0,0 -6.5,5.6 -6.3,11.9 h 10.8 m 3.3,-12.1 c 3.5,8.9 3.2,18.4 3.2,18.4 h -16.6 c 0,0 -0.2,13.6 13.8,19.4 v 9.9 c -21.8,-10 -21.9,-32 -21.9,-32 -0.5,-17.8 14.4,-25.5 14.4,-25.5 0,0 4.8,3.7 7.1,9.8 m 279.3,50.8 v -10 h -2.1 v -0.8 h 5.1 v 0.8 h -2.1 v 10 m 4,0 v -8.6 l 2,8.6 h 0.8 l 2,-8.6 v 8.6 h 0.8 v -10.7 h -1.2 c -0.3,1.4 -0.6,3.1 -1.1,4.8 -0.4,1.8 -0.8,3.2 -1,4.5 l -2.1,-9.3 h -1.2 v 10.7 m -572.8,89.1 c -0.9,0 -1.6,-0.1 -2.3,-0.4 -0.7,-0.3 -1.2,-0.6 -1.6,-1 -0.4,-0.4 -0.8,-1 -1,-1.6 -0.3,-0.6 -0.5,-1.3 -0.6,-2.1 -0.1,-0.7 -0.2,-1.6 -0.2,-2.5 v -5.8 c 0,-0.9 0.1,-1.7 0.2,-2.5 0.1,-0.7 0.3,-1.4 0.6,-2.1 0.3,-0.6 0.6,-1.2 1,-1.6 0.4,-0.4 1,-0.8 1.6,-1 0.7,-0.2 1.4,-0.4 2.3,-0.4 1,0 1.8,0.1 2.5,0.4 0.7,0.3 1.3,0.7 1.7,1.3 0.4,0.6 0.7,1.2 0.9,1.9 0.2,0.7 0.3,1.6 0.4,2.5 0,0.1 0,0.4 0,0.7 v 0.1 h -3.2 v -0.8 c 0,-0.4 0,-0.7 0,-1 0,-0.3 -0.1,-0.6 -0.1,-0.9 -0.1,-0.3 -0.1,-0.5 -0.2,-0.7 -0.1,-0.2 -0.3,-0.4 -0.4,-0.5 -0.2,-0.2 -0.4,-0.3 -0.6,-0.3 -0.3,-0.1 -0.6,-0.1 -0.9,-0.1 -0.4,0 -0.8,0.1 -1.1,0.2 -0.3,0.1 -0.6,0.3 -0.7,0.5 -0.2,0.2 -0.3,0.5 -0.4,0.9 -0.1,0.4 -0.2,0.8 -0.2,1.1 0,0.4 0,0.8 0,1.4 v 7.2 c 0,0.5 0,0.9 0.1,1.3 0,0.4 0.1,0.8 0.2,1.1 0.1,0.4 0.3,0.7 0.4,0.9 0.2,0.2 0.4,0.4 0.7,0.6 0.3,0.1 0.7,0.2 1.1,0.2 0.4,0 0.8,-0.1 1,-0.2 0.3,-0.2 0.5,-0.4 0.7,-0.6 0.2,-0.2 0.3,-0.6 0.4,-0.9 0.1,-0.4 0.2,-0.8 0.2,-1.1 0,-0.4 0,-0.8 0,-1.3 v -0.9 h 3.2 v 0.9 c 0,1.1 -0.1,2 -0.3,2.8 -0.2,0.8 -0.5,1.5 -0.9,2.1 -0.4,0.6 -1,1.1 -1.7,1.4 -0.9,0.7 -1.7,0.8 -2.8,0.8 m 0,-20.7 c -0.8,0 -1.6,0.1 -2.2,0.4 -0.6,0.2 -1.1,0.6 -1.5,1 -0.4,0.4 -0.7,0.9 -1,1.5 -0.3,0.6 -0.4,1.3 -0.5,2 -0.1,0.7 -0.2,1.5 -0.2,2.4 v 5.8 c 0,0.9 0.1,1.7 0.2,2.4 0.1,0.7 0.3,1.4 0.5,2 0.3,0.6 0.6,1.1 1,1.6 0.4,0.4 0.9,0.7 1.5,1 0.6,0.2 1.4,0.4 2.2,0.4 1,0 1.8,-0.2 2.5,-0.5 0.7,-0.3 1.2,-0.8 1.6,-1.3 0.4,-0.6 0.7,-1.3 0.9,-2.1 0.2,-0.8 0.3,-1.7 0.3,-2.7 v -0.6 h -2.6 v 0.6 c 0,0.5 0,0.9 0,1.3 0,0.4 -0.1,0.8 -0.2,1.2 -0.1,0.4 -0.3,0.8 -0.4,1 -0.2,0.3 -0.5,0.5 -0.8,0.7 -0.3,0.2 -0.7,0.3 -1.2,0.3 -0.5,0 -0.9,-0.1 -1.2,-0.3 -0.3,-0.2 -0.6,-0.4 -0.8,-0.7 -0.2,-0.3 -0.4,-0.6 -0.5,-1 -0.1,-0.4 -0.2,-0.8 -0.2,-1.2 0,-0.4 -0.1,-0.8 -0.1,-1.3 v -7.2 c 0,-0.6 0,-1 0,-1.4 0,-0.4 0.1,-0.8 0.2,-1.2 0.1,-0.4 0.3,-0.8 0.5,-1 0.2,-0.3 0.5,-0.5 0.8,-0.6 0.4,-0.2 0.8,-0.2 1.3,-0.2 0.4,0 0.7,0 1,0.1 0.3,0.1 0.5,0.2 0.7,0.4 0.2,0.2 0.3,0.4 0.5,0.6 0.2,0.2 0.2,0.5 0.3,0.8 0.1,0.3 0.1,0.6 0.1,0.9 0,0.3 0,0.6 0,1 v 0.5 h 2.6 c 0,-0.2 0,-0.4 0,-0.5 0,-0.9 -0.2,-1.8 -0.4,-2.5 -0.2,-0.7 -0.5,-1.3 -0.9,-1.8 -0.4,-0.5 -0.9,-0.9 -1.6,-1.2 -0.6,-0.4 -1.4,-0.6 -2.4,-0.6 m 28.1,20.5 h -3.2 v -9.4 h -4.8 v 9.4 h -3.2 v -20.6 h 3.2 v 8.7 h 4.8 v -8.7 h 3.2 m -2.9,20.3 h 2.6 v -20 h -2.6 v 8.7 h -5.4 v -8.7 h -2.6 v 20 h 2.6 v -9.4 h 5.4 z m 21,0.5 c -0.9,0 -1.7,-0.1 -2.4,-0.4 -0.7,-0.2 -1.3,-0.6 -1.7,-1 -0.4,-0.4 -0.8,-1 -1.1,-1.6 -0.3,-0.6 -0.5,-1.3 -0.6,-2.1 -0.1,-0.7 -0.2,-1.6 -0.2,-2.5 v -13.2 h 3.2 v 13.2 c 0,0.6 0,1.1 0,1.6 0,0.4 0.1,0.9 0.2,1.3 0.1,0.5 0.3,0.8 0.4,1.1 0.2,0.3 0.5,0.5 0.8,0.7 0.3,0.2 0.8,0.3 1.3,0.3 0.5,0 0.9,-0.1 1.3,-0.3 0.3,-0.2 0.6,-0.4 0.8,-0.7 0.2,-0.3 0.3,-0.6 0.4,-1.1 0.1,-0.5 0.2,-0.9 0.2,-1.3 0,-0.4 0,-0.9 0,-1.6 v -13.2 h 3.2 v 13.2 c 0,0.9 -0.1,1.8 -0.2,2.5 -0.1,0.7 -0.3,1.4 -0.6,2.1 -0.3,0.6 -0.6,1.2 -1.1,1.6 -0.4,0.4 -1,0.8 -1.7,1 v 0 c -0.5,0.3 -1.3,0.4 -2.2,0.4 m -5.6,-20.5 v 12.9 c 0,0.9 0.1,1.8 0.2,2.5 0.1,0.7 0.3,1.4 0.6,2 0.3,0.6 0.6,1.1 1,1.5 0.4,0.4 1,0.7 1.6,0.9 0.7,0.2 1.4,0.3 2.3,0.3 0.9,0 1.6,-0.1 2.3,-0.3 0.6,-0.2 1.2,-0.5 1.6,-0.9 0.4,-0.4 0.8,-0.9 1,-1.5 0.3,-0.6 0.5,-1.3 0.6,-2 0.1,-0.7 0.2,-1.6 0.2,-2.5 v -12.9 h -2.6 v 12.9 c 0,0.6 0,1.2 0,1.6 0,0.4 -0.1,0.9 -0.2,1.4 -0.1,0.5 -0.3,0.9 -0.5,1.2 -0.2,0.3 -0.5,0.6 -0.9,0.8 -0.4,0.2 -0.9,0.3 -1.4,0.3 -0.5,0 -1,-0.1 -1.4,-0.3 -0.4,-0.2 -0.7,-0.5 -0.9,-0.8 -0.2,-0.3 -0.4,-0.7 -0.5,-1.2 -0.1,-0.5 -0.2,-1 -0.2,-1.4 0,-0.4 0,-1 0,-1.6 v -12.9 z m 35,20.3 h -3.2 l -2.9,-9.4 h -2 v 9.4 h -3.2 v -20.6 h 3.8 c 2.2,0 3.8,0.4 5,1.3 1.1,0.9 1.7,2.3 1.7,4.3 0,1.2 -0.2,2.3 -0.7,3.1 -0.4,0.8 -1,1.4 -1.8,1.7 m 0.3,9.9 h 2.6 l -3.2,-10.1 h 0.1 c 0.8,-0.3 1.4,-0.8 1.8,-1.6 0.4,-0.8 0.6,-1.8 0.6,-3 0,-1.9 -0.5,-3.3 -1.6,-4.1 -1.1,-0.8 -2.7,-1.2 -4.8,-1.2 h -3.5 v 20 h 2.6 v -9.4 h 2.4 z m -4.5,-11.3 h -0.9 v -6.8 h 0.9 c 1.2,0 2.2,0.3 2.8,0.8 0.6,0.5 1,1.4 1,2.6 0,1.2 -0.3,2.1 -1,2.6 -0.6,0.5 -1.6,0.8 -2.8,0.8 m -0.6,-0.3 h 0.6 c 1.2,0 2,-0.2 2.6,-0.7 0.6,-0.5 0.9,-1.3 0.9,-2.4 0,-1.1 -0.3,-1.9 -0.9,-2.4 -0.6,-0.5 -1.5,-0.7 -2.6,-0.7 H -39 Z m 30.3,11.9 h -3.2 l -2.9,-9.4 h -1.9 v 9.4 h -3.2 v -20.6 h 3.8 c 2.2,0 3.8,0.4 5,1.3 1.1,0.9 1.7,2.3 1.7,4.3 0,1.2 -0.2,2.3 -0.7,3.1 -0.4,0.8 -1,1.4 -1.8,1.7 m 0.3,9.9 H -9 l -3.2,-10.1 h 0.1 c 0.8,-0.3 1.4,-0.8 1.8,-1.6 0.4,-0.8 0.6,-1.8 0.6,-3 0,-1.9 -0.5,-3.3 -1.6,-4.1 -1.1,-0.8 -2.7,-1.2 -4.8,-1.2 h -3.5 v 20 h 2.6 v -9.4 h 2.4 z m -4.5,-11.3 H -17 v -6.8 h 0.9 c 1.2,0 2.2,0.3 2.8,0.8 0.6,0.5 1,1.4 1,2.6 0,1.2 -0.3,2.1 -1,2.6 -0.6,0.5 -1.6,0.8 -2.8,0.8 m -0.6,-0.3 h 0.6 c 1.2,0 2,-0.2 2.6,-0.7 0.6,-0.5 0.9,-1.3 0.9,-2.4 0,-1.1 -0.3,-1.9 -0.9,-2.4 -0.6,-0.5 -1.5,-0.7 -2.6,-0.7 h -0.6 z M 13,363.1 H 9.9 L 8.8,358 H 5.4 l -1.1,5.1 H 1.1 l 4.4,-20.6 h 3.1 v 0.1 m 1.5,20.2 h 2.6 l -4.3,-20 H 5.7 l -4.3,20 H 4 l 1.1,-5.1 H 9 Z M 8.7,355.9 H 5.5 l 1.6,-9.7 z m -2.9,-0.3 h 2.6 l -1.3,-7.7 z m 23.7,7.7 c -1.9,0 -3.3,-0.6 -4.3,-1.7 -1,-1.1 -1.5,-2.6 -1.6,-4.5 V 357 l 3.2,-0.8 v 0.2 c 0.1,2.8 1,4.2 2.8,4.2 1.4,0 2,-0.7 2,-2 0,-0.4 -0.1,-0.8 -0.2,-1.1 -0.1,-0.3 -0.3,-0.7 -0.5,-1 -0.2,-0.3 -0.4,-0.5 -0.6,-0.7 -0.2,-0.2 -0.5,-0.4 -0.8,-0.7 l -3.6,-2.9 c -0.7,-0.5 -1.2,-1.2 -1.6,-2 -0.4,-0.8 -0.6,-1.8 -0.6,-2.8 0,-1.5 0.5,-2.8 1.4,-3.7 1,-0.9 2.2,-1.4 3.8,-1.4 1.7,0 3,0.4 4,1.2 1,0.8 1.6,2 1.8,3.5 0,0.2 0,0.4 0.1,0.7 v 0.1 l -3.2,0.8 v -0.2 c 0,-0.1 0,-0.3 -0.1,-0.6 -0.1,-0.9 -0.4,-1.6 -0.8,-2.1 -0.4,-0.5 -1,-0.8 -1.9,-0.8 -0.7,0 -1.2,0.2 -1.5,0.5 -0.3,0.4 -0.5,0.9 -0.5,1.5 0,1.1 0.5,2 1.4,2.8 l 3.6,2.9 c 2,1.6 3,3.5 3,5.7 0,1.5 -0.5,2.7 -1.4,3.6 -1,1 -2.3,1.4 -3.9,1.4 m -5.6,-6 c 0.1,1.8 0.6,3.2 1.6,4.2 0.9,1 2.3,1.6 4.1,1.6 1.5,0 2.7,-0.4 3.6,-1.2 0.9,-0.8 1.3,-1.9 1.3,-3.4 0,-2.1 -1,-4 -2.8,-5.5 L 28,350 c -1,-0.8 -1.5,-1.8 -1.5,-3 0,-0.7 0.2,-1.3 0.6,-1.7 0.4,-0.4 1,-0.6 1.7,-0.6 0.9,0 1.6,0.3 2.1,0.9 0.5,0.6 0.8,1.3 0.9,2.3 0,0.2 0,0.3 0,0.4 l 2.6,-0.7 c 0,-0.2 0,-0.4 -0.1,-0.5 -0.2,-1.4 -0.8,-2.5 -1.7,-3.3 -0.9,-0.8 -2.2,-1.2 -3.8,-1.2 -1.5,0 -2.7,0.4 -3.6,1.3 -0.9,0.8 -1.3,2 -1.3,3.5 0,1 0.2,1.9 0.6,2.7 0.4,0.8 0.9,1.4 1.6,1.9 l 3.6,2.9 c 0.3,0.3 0.6,0.5 0.8,0.7 0.2,0.2 0.4,0.4 0.7,0.7 0.3,0.3 0.4,0.7 0.6,1.1 0.1,0.4 0.2,0.8 0.2,1.2 0,1.5 -0.8,2.3 -2.3,2.3 -1.8,0 -2.9,-1.4 -3,-4.3 z m 27.8,6 c -0.9,0 -1.6,-0.1 -2.3,-0.4 -0.7,-0.3 -1.2,-0.6 -1.6,-1 -0.4,-0.4 -0.8,-1 -1,-1.6 -0.3,-0.6 -0.5,-1.3 -0.6,-2.1 -0.1,-0.7 -0.2,-1.6 -0.2,-2.5 v -5.8 c 0,-0.9 0.1,-1.7 0.2,-2.5 0.1,-0.7 0.3,-1.4 0.6,-2.1 0.3,-0.6 0.6,-1.2 1,-1.6 0.4,-0.4 1,-0.8 1.6,-1 0.7,-0.2 1.4,-0.4 2.3,-0.4 1,0 1.8,0.1 2.5,0.4 0.7,0.3 1.3,0.7 1.7,1.3 0.4,0.6 0.7,1.2 0.9,1.9 0.2,0.7 0.3,1.6 0.4,2.5 0,0.1 0,0.4 0,0.7 v 0.1 H 54 v -0.8 c 0,-0.4 0,-0.7 0,-1 0,-0.3 -0.1,-0.6 -0.1,-0.9 -0.1,-0.3 -0.1,-0.5 -0.2,-0.7 -0.1,-0.2 -0.3,-0.4 -0.4,-0.5 -0.2,-0.2 -0.4,-0.3 -0.6,-0.3 -0.3,-0.1 -0.6,-0.1 -0.9,-0.1 -0.4,0 -0.8,0.1 -1.1,0.2 -0.3,0.1 -0.6,0.3 -0.7,0.5 -0.2,0.2 -0.3,0.5 -0.4,0.9 -0.1,0.4 -0.2,0.8 -0.2,1.1 0,0.4 0,0.8 0,1.4 v 7.2 c 0,0.5 0,0.9 0.1,1.3 0,0.4 0.1,0.8 0.2,1.1 0.1,0.4 0.3,0.7 0.5,0.9 0.2,0.2 0.4,0.4 0.7,0.6 0.3,0.1 0.7,0.2 1.1,0.2 0.4,0 0.8,-0.1 1,-0.2 0.3,-0.2 0.5,-0.4 0.7,-0.6 0.2,-0.2 0.3,-0.6 0.4,-0.9 0.1,-0.4 0.2,-0.8 0.2,-1.1 0,-0.4 0,-0.8 0,-1.3 v -0.9 h 3.2 v 0.9 c 0,1.1 -0.1,2 -0.3,2.8 -0.2,0.8 -0.5,1.5 -0.9,2.1 -0.4,0.6 -1,1.1 -1.7,1.4 -1.1,0.7 -1.9,0.8 -2.9,0.8 m 0,-20.7 c -0.8,0 -1.6,0.1 -2.2,0.4 -0.6,0.2 -1.1,0.6 -1.5,1 -0.4,0.4 -0.7,0.9 -1,1.5 -0.3,0.6 -0.4,1.3 -0.5,2 -0.1,0.7 -0.2,1.5 -0.2,2.4 v 5.8 c 0,0.9 0,1.7 0.2,2.4 0.1,0.7 0.3,1.4 0.5,2 0.3,0.6 0.6,1.1 1,1.6 0.4,0.4 0.9,0.7 1.5,1 0.6,0.2 1.4,0.4 2.2,0.4 1,0 1.8,-0.2 2.5,-0.5 0.7,-0.3 1.2,-0.8 1.6,-1.3 0.4,-0.6 0.7,-1.3 0.9,-2.1 0.2,-0.8 0.3,-1.7 0.3,-2.7 v -0.6 h -2.6 v 0.6 c 0,0.5 0,0.9 0,1.3 0,0.4 -0.1,0.8 -0.2,1.2 -0.1,0.4 -0.3,0.8 -0.4,1 -0.2,0.3 -0.5,0.5 -0.8,0.7 -0.3,0.2 -0.7,0.3 -1.2,0.3 -0.5,0 -0.9,-0.1 -1.2,-0.3 -0.3,-0.2 -0.6,-0.4 -0.8,-0.7 -0.2,-0.3 -0.4,-0.6 -0.5,-1 -0.1,-0.4 -0.2,-0.8 -0.2,-1.2 0,-0.4 -0.1,-0.8 -0.1,-1.3 v -7.2 c 0,-0.6 0,-1 0,-1.4 0,-0.4 0.1,-0.8 0.2,-1.2 0.1,-0.4 0.3,-0.8 0.5,-1 0.2,-0.3 0.5,-0.5 0.8,-0.6 0.4,-0.2 0.8,-0.2 1.3,-0.2 0.4,0 0.7,0 1,0.1 0.3,0.1 0.5,0.2 0.7,0.4 0.2,0.2 0.3,0.4 0.5,0.6 0.1,0.2 0.2,0.5 0.3,0.8 0.1,0.3 0.1,0.6 0.1,0.9 0,0.3 0,0.6 0,1 v 0.5 H 57 c 0,-0.2 0,-0.4 0,-0.5 0,-0.9 -0.2,-1.8 -0.4,-2.5 -0.2,-0.7 -0.5,-1.3 -0.9,-1.8 -0.4,-0.5 -0.9,-0.9 -1.6,-1.2 -0.7,-0.4 -1.5,-0.6 -2.4,-0.6 m 27.5,20.5 H 76 L 74.9,358 h -3.4 l -1.1,5.1 h -3.2 l 4.4,-20.6 h 3.1 v 0.1 m 1.5,20.2 h 2.6 l -4.3,-20 h -2.7 l -4.3,20 h 2.6 l 1.1,-5.1 h 3.9 z m -1.4,-6.9 h -3.2 l 1.6,-9.7 z m -2.9,-0.3 h 2.6 l -1.3,-7.7 z m 29.5,7.5 h -3.2 l -2.9,-9.4 h -1.9 v 9.4 H 90.2 V 342.5 H 94 c 2.2,0 3.8,0.4 5,1.3 1.1,0.9 1.7,2.3 1.7,4.3 0,1.2 -0.2,2.3 -0.7,3.1 -0.4,0.8 -1,1.4 -1.8,1.7 m 0.3,9.9 h 2.6 L 97.9,352.7 H 98 c 0.8,-0.3 1.4,-0.8 1.8,-1.6 0.4,-0.8 0.6,-1.8 0.6,-3 0,-1.9 -0.5,-3.3 -1.6,-4.1 -1.1,-0.8 -2.7,-1.2 -4.8,-1.2 h -3.5 v 20 h 2.6 v -9.4 h 2.4 z M 94,351.5 h -0.9 v -6.8 H 94 c 1.2,0 2.2,0.3 2.8,0.8 0.6,0.5 1,1.4 1,2.6 0,1.2 -0.3,2.1 -1,2.6 -0.6,0.5 -1.6,0.8 -2.8,0.8 m -0.6,-0.3 H 94 c 1.2,0 2,-0.2 2.6,-0.7 0.6,-0.5 0.9,-1.3 0.9,-2.4 0,-1.1 -0.3,-1.9 -0.9,-2.4 C 96,345.2 95.1,345 94,345 h -0.6 z m 22.4,11.9 h -3.2 v -20.6 h 3.2 z m -2.9,-0.3 h 2.6 v -20 h -2.6 z m 26.1,0.3 h -3.2 l -1.1,-5.1 h -3.4 l -1.1,5.1 H 127 l 4.4,-20.6 h 3.1 v 0.1 m 1.5,20.2 h 2.6 l -4.3,-20 h -2.7 l -4.3,20 h 2.6 l 1.1,-5.1 h 3.9 z m -1.3,-6.9 h -3.2 l 1.6,-9.7 z m -2.9,-0.3 h 2.6 l -1.3,-7.7 z m 132.6,7.7 c -1.9,0 -3.3,-0.6 -4.3,-1.7 -1,-1.1 -1.5,-2.6 -1.7,-4.5 V 357 l 3.2,-0.8 v 0.2 c 0.1,2.8 1,4.2 2.8,4.2 1.4,0 2,-0.7 2,-2 0,-0.4 -0.1,-0.8 -0.2,-1.1 -0.1,-0.3 -0.3,-0.7 -0.5,-1 -0.2,-0.3 -0.4,-0.5 -0.6,-0.7 -0.2,-0.2 -0.5,-0.4 -0.8,-0.7 l -3.6,-2.9 c -0.7,-0.5 -1.2,-1.2 -1.6,-2 -0.4,-0.8 -0.6,-1.8 -0.6,-2.8 0,-1.5 0.5,-2.8 1.4,-3.7 1,-0.9 2.2,-1.4 3.8,-1.4 1.7,0 3,0.4 4,1.2 1,0.8 1.6,2 1.8,3.5 0,0.2 0,0.4 0.1,0.7 v 0.1 l -3.2,0.8 v -0.2 c 0,-0.1 0,-0.3 -0.1,-0.6 -0.1,-0.9 -0.4,-1.6 -0.8,-2.1 -0.4,-0.5 -1,-0.8 -1.9,-0.8 -0.6,0 -1.2,0.2 -1.5,0.5 -0.3,0.4 -0.5,0.9 -0.5,1.5 0,1.1 0.5,2 1.4,2.8 l 3.6,2.9 c 2,1.6 3,3.5 3,5.7 0,1.5 -0.5,2.7 -1.4,3.6 -0.9,1 -2.2,1.4 -3.8,1.4 m -5.6,-6 c 0.1,1.8 0.7,3.2 1.6,4.2 0.9,1 2.3,1.6 4.1,1.6 1.5,0 2.7,-0.4 3.6,-1.2 0.9,-0.8 1.3,-1.9 1.3,-3.4 0,-2.1 -1,-4 -2.8,-5.5 l -3.6,-2.9 c -1,-0.8 -1.5,-1.8 -1.5,-3 0,-0.7 0.2,-1.3 0.6,-1.7 0.4,-0.4 1,-0.6 1.7,-0.6 0.9,0 1.6,0.3 2.1,0.9 0.5,0.6 0.8,1.3 0.9,2.3 0,0.2 0,0.3 0,0.4 l 2.6,-0.7 c 0,-0.2 0,-0.4 -0.1,-0.5 -0.2,-1.4 -0.8,-2.5 -1.7,-3.3 -0.9,-0.8 -2.2,-1.2 -3.8,-1.2 -1.5,0 -2.7,0.4 -3.6,1.3 -0.9,0.8 -1.3,2 -1.3,3.5 0,1 0.2,1.9 0.6,2.7 0.4,0.8 0.9,1.4 1.6,1.9 l 3.6,2.9 c 0.3,0.3 0.6,0.5 0.8,0.7 0.2,0.2 0.4,0.4 0.7,0.8 0.3,0.3 0.4,0.7 0.6,1.1 0.1,0.4 0.2,0.8 0.2,1.2 0,1.5 -0.8,2.3 -2.3,2.3 -1.8,0 -2.9,-1.4 -3,-4.3 z m 27.7,5.8 h -3.2 v -17.7 h -3.6 v -2.9 h 10.4 v 2.9 h -3.6 m -2.9,17.4 h 2.6 v -17.7 h 3.6 v -2.3 H 280 v 2.3 h 3.6 z m 25.7,0.3 H 301 v -20.6 h 8.3 v 2.5 h -5.1 v 6.2 h 3.6 v 2.5 h -3.6 v 7 h 5.1 m -8,2.1 h 7.7 v -1.9 h -5 v -7.5 h 3.6 v -1.9 H 304 v -6.8 h 5.1 v -1.9 h -7.7 v 20 z m 29.9,0.3 H 328 l -1.1,-5.1 h -3.4 l -1.1,5.1 h -3.2 l 4.4,-20.6 h 3.1 v 0.1 m 1.5,20.2 h 2.6 l -4.3,-20 h -2.7 l -4.3,20 h 2.6 l 1.1,-5.1 h 3.9 z m -1.4,-6.9 h -3.2 l 1.6,-9.7 z m -2.9,-0.3 h 2.6 l -1.3,-7.7 z m 30.2,7.5 h -3.9 V 363 l -3.5,-9.1 -1.3,2.6 v 6.6 h -3.2 v -20.6 h 3.2 v 8.2 l 4.1,-8.2 h 4 l -0.1,0.2 -4.3,7.9 m 1.3,12.2 h 3.3 l -5,-12.2 v -0.1 l 4.2,-7.8 h -3.3 l -4.6,9.2 v -9.2 h -2.6 v 20 h 2.6 v -6.4 l 1.6,-3.2 0.1,0.3 z m 25.4,0.3 h -3.2 v -9.4 h -4.8 v 9.4 h -3.2 v -20.6 h 3.2 v 8.7 h 4.8 v -8.7 h 3.2 m -2.9,20.3 h 2.6 v -20 h -2.6 v 8.7 h -5.4 v -8.7 h -2.6 v 20 h 2.6 v -9.4 h 5.4 z m 20.6,0.5 c -1,0 -1.9,-0.2 -2.7,-0.5 -0.7,-0.3 -1.4,-0.8 -1.8,-1.4 -0.4,-0.6 -0.8,-1.3 -1,-2.1 -0.2,-0.8 -0.3,-1.8 -0.3,-2.8 v -7.4 c 0,-1.1 0.1,-2 0.3,-2.8 0.2,-0.8 0.5,-1.5 1,-2.1 0.4,-0.6 1.1,-1.1 1.8,-1.4 0.7,-0.3 1.6,-0.5 2.7,-0.5 2,0 3.5,0.6 4.4,1.8 0.9,1.1 1.3,2.8 1.3,5 v 7.4 c 0,1.1 -0.1,2 -0.3,2.8 -0.2,0.8 -0.5,1.5 -1,2.2 -0.4,0.6 -1,1.1 -1.8,1.4 -0.7,0.3 -1.6,0.4 -2.6,0.4 m 0,-20.7 c -1,0 -1.9,0.1 -2.6,0.4 -0.7,0.3 -1.3,0.7 -1.7,1.3 -0.4,0.6 -0.7,1.2 -0.9,2 -0.2,0.8 -0.3,1.7 -0.3,2.8 v 7.4 c 0,1 0.1,2 0.3,2.8 0.2,0.8 0.5,1.5 0.9,2 0.4,0.6 1,1 1.7,1.3 0.7,0.3 1.6,0.5 2.6,0.5 1,0 1.8,-0.2 2.6,-0.5 0.7,-0.3 1.3,-0.7 1.7,-1.3 0.4,-0.6 0.7,-1.3 0.9,-2.1 0.2,-0.8 0.3,-1.7 0.3,-2.7 v -7.4 c 0,-2.1 -0.4,-3.7 -1.3,-4.8 -0.9,-1.1 -2.3,-1.7 -4.2,-1.7 m 0,18.4 c -1.1,0 -1.8,-0.3 -2.2,-1 -0.4,-0.6 -0.6,-1.6 -0.6,-2.8 v -8.8 c 0,-1.2 0.2,-2.1 0.6,-2.7 0.4,-0.6 1.2,-0.9 2.2,-0.9 1.1,0 1.8,0.3 2.2,0.9 0.4,0.6 0.6,1.5 0.6,2.7 v 8.8 c 0,1.2 -0.2,2.2 -0.6,2.8 -0.4,0.6 -1.2,1 -2.2,1 m -2,-1.2 c 0.4,0.6 1,0.9 2,0.9 1,0 1.6,-0.3 2,-0.9 0.4,-0.6 0.6,-1.5 0.6,-2.6 v -8.8 c 0,-1.1 -0.2,-2 -0.6,-2.6 -0.4,-0.5 -1,-0.8 -2,-0.8 -1,0 -1.6,0.3 -2,0.8 -0.4,0.6 -0.6,1.4 -0.6,2.6 v 8.8 c 0,1.1 0.2,2 0.6,2.6 m 25.5,3.5 c -0.9,0 -1.7,-0.1 -2.4,-0.4 -0.7,-0.2 -1.3,-0.6 -1.7,-1 -0.4,-0.4 -0.8,-1 -1.1,-1.6 -0.3,-0.6 -0.5,-1.3 -0.6,-2.1 -0.1,-0.7 -0.2,-1.6 -0.2,-2.5 v -13.2 h 3.2 v 13.2 c 0,0.6 0,1.2 0,1.6 0,0.4 0.1,0.9 0.2,1.3 0.1,0.5 0.3,0.8 0.4,1.1 0.2,0.3 0.5,0.5 0.8,0.7 0.3,0.2 0.8,0.3 1.3,0.3 0.5,0 0.9,-0.1 1.3,-0.3 0.3,-0.2 0.6,-0.4 0.8,-0.7 0.2,-0.3 0.3,-0.6 0.4,-1.1 0.1,-0.5 0.2,-0.9 0.2,-1.3 0,-0.4 0,-0.9 0,-1.6 v -13.2 h 3.2 v 13.2 c 0,0.9 -0.1,1.8 -0.2,2.5 -0.1,0.7 -0.3,1.4 -0.6,2.1 -0.3,0.6 -0.6,1.2 -1.1,1.6 -0.4,0.4 -1,0.8 -1.7,1 v 0 c -0.5,0.3 -1.3,0.4 -2.2,0.4 m -5.7,-20.5 v 12.9 c 0,0.9 0.1,1.8 0.2,2.5 0.1,0.7 0.3,1.4 0.6,2 0.3,0.6 0.6,1.1 1,1.5 0.4,0.4 1,0.7 1.6,0.9 0.7,0.2 1.4,0.3 2.3,0.3 0.9,0 1.6,-0.1 2.3,-0.3 0.6,-0.2 1.2,-0.5 1.6,-0.9 0.4,-0.4 0.8,-0.9 1,-1.5 0.3,-0.6 0.5,-1.3 0.6,-2 0.1,-0.7 0.2,-1.6 0.2,-2.5 V 342.8 H 420 v 12.9 c 0,0.6 0,1.2 0,1.6 0,0.4 -0.1,0.9 -0.2,1.4 -0.1,0.5 -0.3,0.9 -0.5,1.2 -0.2,0.3 -0.5,0.6 -0.9,0.8 -0.4,0.2 -0.9,0.3 -1.4,0.3 -0.5,0 -1,-0.1 -1.4,-0.3 -0.4,-0.2 -0.7,-0.5 -0.9,-0.8 -0.2,-0.3 -0.4,-0.7 -0.5,-1.2 -0.1,-0.5 -0.2,-1 -0.2,-1.4 0,-0.4 0,-0.9 0,-1.6 v -12.9 z m 29.2,20.5 c -1.9,0 -3.3,-0.6 -4.3,-1.7 -1,-1.1 -1.5,-2.6 -1.6,-4.5 V 357 l 3.2,-0.8 v 0.2 c 0.1,2.8 1,4.2 2.8,4.2 1.4,0 2,-0.7 2,-2 0,-0.4 -0.1,-0.8 -0.2,-1.1 -0.1,-0.3 -0.3,-0.7 -0.5,-1 -0.2,-0.3 -0.4,-0.5 -0.6,-0.7 -0.2,-0.2 -0.5,-0.4 -0.8,-0.7 l -3.6,-2.9 c -0.7,-0.5 -1.2,-1.2 -1.6,-2 -0.4,-0.8 -0.6,-1.8 -0.6,-2.8 0,-1.5 0.5,-2.8 1.4,-3.7 1,-0.9 2.2,-1.4 3.8,-1.4 1.7,0 3,0.4 4,1.2 1,0.8 1.6,2 1.8,3.5 0,0.2 0,0.4 0.1,0.7 v 0.1 l -3.2,0.8 v -0.2 c 0,-0.1 0,-0.3 -0.1,-0.6 -0.1,-0.9 -0.4,-1.6 -0.8,-2.1 -0.4,-0.5 -1,-0.8 -1.9,-0.8 -0.6,0 -1.2,0.2 -1.5,0.5 -0.3,0.4 -0.5,0.9 -0.5,1.5 0,1.1 0.5,2 1.4,2.8 l 3.6,2.9 c 2,1.6 3,3.5 3,5.7 0,1.5 -0.5,2.7 -1.4,3.6 -1,1 -2.3,1.4 -3.9,1.4 m -5.6,-6 c 0.1,1.8 0.7,3.2 1.6,4.2 0.9,1 2.3,1.6 4.1,1.6 1.5,0 2.7,-0.4 3.6,-1.2 0.9,-0.8 1.3,-1.9 1.3,-3.4 0,-2.1 -1,-4 -2.8,-5.5 l -3.7,-3 c -1,-0.8 -1.5,-1.8 -1.5,-3 0,-0.7 0.2,-1.3 0.6,-1.7 0.4,-0.4 1,-0.6 1.7,-0.6 0.9,0 1.6,0.3 2.1,0.9 0.5,0.6 0.8,1.3 0.9,2.3 0,0.2 0,0.3 0,0.4 l 2.6,-0.7 c 0,-0.2 0,-0.4 -0.1,-0.5 -0.2,-1.4 -0.8,-2.5 -1.7,-3.3 -0.9,-0.8 -2.2,-1.2 -3.8,-1.2 -1.5,0 -2.7,0.4 -3.6,1.3 -0.9,0.8 -1.3,2 -1.3,3.5 0,1 0.2,1.9 0.6,2.7 0.4,0.8 0.9,1.4 1.6,1.9 l 3.6,2.9 c 0.3,0.3 0.6,0.5 0.8,0.7 0.2,0.2 0.4,0.4 0.7,0.8 0.2,0.3 0.4,0.7 0.6,1.1 0.1,0.4 0.2,0.8 0.2,1.2 0,1.5 -0.8,2.3 -2.3,2.3 -1.8,0 -2.9,-1.4 -3,-4.3 z m 30.6,5.8 h -8.3 v -20.6 h 8.3 v 2.5 h -5.1 v 6.2 h 3.6 v 2.5 h -3.6 v 7 h 5.1 m -7.9,2.1 h 7.7 v -1.9 h -5.1 v -7.5 h 3.6 v -1.9 h -3.6 v -6.8 h 5.1 v -1.9 h -7.7 z"
     id="path8" /><path
     class="st0"
     d="m 219.4,393 2,2.6 -1.8,1.3 -3.2,-1.1 -5,-0.5 -0.3,-0.8 -4.9,-2 -3,-6 -1.4,-4.6 c 0,0 -1.2,-0.1 -1.2,-0.3 0,0 -1.7,-2.7 -2.2,-4.3 -0.3,-1 -1,-0.4 -1.2,-0.7 -1.4,-1.6 -3.1,-8 -3.1,-8 l -0.7,-0.8 -3.5,-3 -1.1,-0.4 -4.6,-1.6 -4.5,0.9 -0.5,0.5 -0.8,1.2 -0.4,1.6 -0.5,0.8 0.3,1.5 -1.8,1.2 -1.5,-1.1 -1.4,-0.3 -7.2,-4.9 -1.8,-5.1 -1.2,-2 -0.7,-1.6 -2.5,-1.9 -1.1,-1.8 -1.1,-2 -1.1,-0.5 -1.1,-1.5 -1.7,-1.7 0.6,-0.9 0.3,-0.6 23.3,0.3 0.3,-32.4 h 22.6 v 9.4 c 0,0 -1.5,0.1 -1.8,0.3 -0.2,0 -0.9,0 -1.1,0 h -0.5 c -0.9,-0.1 -2.4,0.3 -3,0.9 -0.6,0.6 -2.3,1.4 -2.3,2.3 v 0.2 c 0,0.2 1.3,0.4 1.3,0.7 -0.4,1.2 0.8,2.9 1.7,4.2 0,0.1 0,0.1 0,0.2 0,0.1 0,0.2 0,0.3 l -0.1,0.3 c 0,0.2 -0.1,0.4 -0.1,0.6 l -0.4,0.1 c -0.1,0 -0.5,0.1 -0.9,0.4 l -0.2,0.1 c -0.3,0.2 -0.5,0.3 -0.8,0.5 -1.4,0.9 -1.9,2 -2.1,3 -0.1,0.3 -0.2,0.6 -0.3,0.9 -0.1,0.2 -0.2,0.4 -0.3,0.6 -0.2,0.4 -0.3,0.8 -0.4,1.1 v 0.1 c -0.3,0.8 -0.2,1.7 0.1,2.4 l 0.1,0.1 c 0.1,0.3 0.3,0.6 0.5,1 0.1,0.3 0.3,0.5 0.5,0.8 0.1,1 0.7,2 1.9,2.6 0.1,0.1 0.3,0.1 0.4,0.2 0.2,0.2 0.5,0.4 0.8,0.6 0.3,0.1 0.5,0.2 0.8,0.3 0.5,0.8 1.4,1.4 2.5,1.6 0.2,0 0.5,0.1 0.8,0.1 h 0.5 c 0.2,0 0.4,0 0.6,0 0.1,0 0.1,0 0.2,0 1.3,0.3 2.2,-0.1 2.9,-0.5 0.1,0.1 0.2,0.2 0.3,0.3 0.4,0.5 0.8,0.8 1.1,1.2 0.9,0.8 1.8,1.2 2.8,1.3 v 0 c 0.2,0.1 0.4,0.3 0.6,0.4 0.1,0.1 0.2,0.1 0.3,0.2 0.3,0.3 0.7,0.5 1.2,0.7 0,0.3 0.1,0.5 0.2,0.8 0.1,0.2 0.1,0.3 0.2,0.5 l 0.1,0.2 c 0.1,0.2 0.1,0.4 0.2,0.5 0.1,0.3 0.5,1.4 1.6,2 0.5,0.3 1,0.4 1.3,0.5 0.1,0.2 0.4,0.5 0.5,0.7 0,0.1 0,0.2 0,0.4 -0.1,0.5 0.1,1 0.2,1.5 0,0.3 0.4,0.8 0.5,1.3 0.1,0.3 1.1,0.6 1.2,0.8 0,0.1 1.8,0.3 1.8,0.4 v 0.1 c 0,1.6 -1.2,3.1 0.3,3.7 0.5,0.2 -0.8,0.4 -0.3,0.6 0.1,0 0.1,0 0.2,0.1 0.3,0.7 0.7,1.3 1.3,1.8 0,0.5 0.2,1 0.4,1.4 -0.2,0.2 -0.5,0.5 -0.7,0.9 -0.4,0.4 -0.6,0.8 -0.8,1.1 v 0.1 c -0.1,0.2 -0.3,0.5 -0.4,0.7 -0.1,0.2 -0.3,0.5 -0.4,0.7 -1,1.4 -0.7,2.7 -0.6,3.1 0.2,1 0.9,1.9 1.9,2.3 0.3,0.1 0.7,0.2 1,0.3 0.4,0.4 0.9,0.8 1.5,0.9 0.1,0 0.3,0.1 0.4,0.1 0.2,0.1 0.4,0.2 0.6,0.3 0.1,0 0.2,0.1 0.2,0.1 0.1,0.1 0.2,0.2 0.3,0.2 0,0.1 0,0.1 0,0.2 0,0.2 0.1,0.4 0.1,0.6 0,0 0,0.1 0,0.1 l -1.5,2.2 -0.5,3.4 -0.4,0.7 -0.5,1.5 m 8.3,-57.7 c 0.2,-0.1 0.5,-0.1 0.7,-0.2 0.2,-0.1 0.3,-0.1 0.4,-0.2 0.3,-0.4 0.5,-0.8 0.6,-1.3 0,-0.1 0,-0.2 0.1,-0.2 0.1,-0.2 0,-0.4 -0.3,-0.4 -0.8,0 -1.6,0 -2.4,0 -0.1,0 -0.3,0.1 -0.3,0.2 -0.1,0.1 -0.1,0.3 -0.1,0.5 0,0.1 0,0.3 0,0.4 0,0 -0.1,0 -0.1,0 0,-0.1 -0.1,-0.2 -0.1,-0.3 0,-0.1 0,-0.2 0,-0.4 0,-0.1 -0.1,-0.2 -0.3,-0.2 0,0.1 0,0.2 0,0.2 -0.2,0.1 -0.4,0.1 -0.6,0.2 0,0 -0.1,0 -0.1,0 0,0 0,-0.1 0.1,-0.1 0.2,-0.1 0.3,-0.2 0.5,-0.3 0.1,-0.1 0.2,-0.2 0.2,-0.3 0,-0.2 0.1,-0.3 0.2,-0.5 0.1,-0.1 0.3,-0.2 0.4,-0.4 0.2,-0.2 0.3,-0.5 0.6,-0.6 0.1,0 0.1,-0.1 0.1,-0.1 0.1,-0.2 0.1,-0.5 0.2,-0.7 0.1,-0.3 0,-0.6 -0.3,-0.7 -0.3,-0.2 -0.4,-0.2 -0.2,-0.5 -0.1,0 -0.2,0 -0.2,0 -0.2,0.1 -0.3,0.1 -0.3,-0.1 0,-0.4 -0.1,-0.7 -0.2,-1.1 0,-0.1 0,-0.2 0,-0.3 -0.1,-0.3 -0.2,-0.7 -0.3,-1 -0.1,-0.2 -0.2,-0.4 -0.3,-0.6 -0.1,-0.1 -0.1,-0.1 -0.3,0 -0.4,0.3 -0.6,0.9 -0.8,1.3 -0.2,0.4 -0.4,0.8 -0.6,1.2 -0.1,0.2 -0.3,0.4 -0.5,0.4 -0.3,0 -0.6,0 -0.9,0 -0.1,0 -0.2,0 -0.4,0 -0.3,0.1 -0.5,0.2 -0.8,0 -0.1,-0.1 -0.2,-0.1 -0.3,-0.1 -0.2,-0.1 -0.4,-0.2 -0.6,-0.2 -0.2,0 -0.4,-0.1 -0.7,-0.1 -0.1,0 -0.3,0 -0.4,0.1 -0.1,0.1 -0.2,0.2 -0.2,0.4 0,0.4 0,0.4 -0.4,0.4 -0.2,0 -0.4,0 -0.6,0 -0.3,0 -0.6,-0.1 -0.9,0.1 -0.1,0.1 -0.2,0.1 -0.4,0.2 -0.2,0.1 -0.4,0.1 -0.6,0.2 -0.4,0.2 -0.8,0.4 -1.2,0.7 -0.3,-0.3 -0.6,-0.5 -0.8,-0.9 -0.2,-0.3 -0.4,-0.7 -0.5,-1 -0.2,-0.7 0.1,-1.3 0.3,-2 0.1,-0.3 0.2,-0.7 0,-1 -0.1,-0.1 -0.3,-0.2 -0.4,-0.3 0,-0.2 0,-0.5 0,-0.8 0,-0.2 -0.1,-0.3 -0.3,-0.3 -0.2,0 -0.3,0.1 -0.5,0.1 0,0.4 -0.5,0.9 -0.9,1 -0.2,0 -0.3,0.1 -0.4,0.2 -0.4,0.3 -0.8,0.4 -1.2,0.4 -0.1,0 -0.2,0 -0.3,0.1 -0.3,0.2 -0.3,0.5 -0.2,0.8 -0.1,0 -0.2,0 -0.2,0 -0.3,-0.4 -0.7,-0.5 -1.2,-0.5 -0.1,0 -0.2,-0.1 -0.3,-0.1 -0.3,-0.1 -0.5,-0.2 -0.8,-0.3 -0.1,0 -0.2,0 -0.2,0 0,0.1 0,0.1 0.1,0.2 0,0 0,0.1 0,0.1 0.2,0.3 0.4,0.6 0.5,1 0.1,0.3 0.2,0.5 0.2,0.8 0.1,0.5 0.1,0.6 0.6,0.7 0.1,0 0.2,0.1 0.3,0.2 0.1,0.1 -0.1,0.2 -0.2,0.2 -0.1,0.1 -0.2,0.1 -0.3,0.2 -0.5,0.4 -1.1,0.8 -1.6,1.2 -0.2,0.2 -0.5,0.3 -0.7,0.6 0,0 -0.1,0.1 -0.1,0.1 0,0 -0.1,-0.1 -0.1,-0.1 -0.1,-0.1 -0.1,-0.2 -0.2,-0.2 -0.1,0 -0.3,0.1 -0.4,0.1 -0.2,0 -0.4,0.1 -0.5,0 -0.2,-0.1 -0.4,-0.2 -0.6,-0.4 -0.2,-0.2 -0.4,-0.3 -0.4,-0.7 0,-0.2 -0.1,-0.4 -0.2,-0.6 -0.2,-0.3 -0.3,-0.3 -0.6,-0.1 -0.2,0.1 -0.4,0.4 -0.7,0.1 0,0 -0.1,0 -0.1,0 -0.1,0.3 -0.3,0.4 -0.6,0.4 -0.3,0 -0.7,-0.1 -1,-0.1 -0.2,0 -0.4,0 -0.6,0 0,0.3 0,0.5 0,0.7 0,0.1 0.1,0.2 0.2,0.2 0.3,0.1 0.5,0.3 0.6,0.6 -0.1,0 -0.2,0 -0.3,0 -0.3,0 -0.6,0 -0.8,0.4 -0.1,0.3 -0.1,0.9 0.1,1.2 0.4,0.4 0.5,1 0.7,1.6 0,0.1 0,0.3 0,0.4 0,0.2 -0.1,0.4 -0.1,0.6 0,0.1 0,0.2 0,0.3 -0.1,0.4 -0.2,0.9 -0.3,1.3 -0.1,0.6 -0.1,1.2 -0.2,1.7 0,0 0,0 0,0.1 -0.1,0 -0.2,0 -0.4,0 -0.4,0 -0.7,0.1 -1.1,0.2 -0.3,0.1 -0.6,0.2 -0.9,0.3 -0.1,0 -0.1,0 -0.2,0.1 -0.3,0.2 -0.6,0.3 -0.8,0.5 -0.4,0.3 -0.8,0.6 -0.8,1.2 0,0.1 -0.1,0.2 -0.1,0.3 -0.1,0.2 -0.2,0.4 -0.1,0.7 0,0.1 0,0.2 0,0.3 -0.1,0.1 -0.2,0.2 -0.3,0.3 -0.1,0.1 -0.3,0.3 -0.3,0.4 -0.1,0.3 -0.2,0.5 -0.3,0.8 0,0.1 0,0.1 0,0.2 0.1,0.3 0.3,0.6 0.4,0.9 0.2,0.3 0.3,0.5 0.5,0.8 0.2,0.3 0.4,0.5 0.3,0.9 -0.1,0.2 0.1,0.3 0.2,0.4 0.1,0 0.2,0 0.3,0 0.3,0 0.5,0.2 0.6,0.4 0.1,0.1 0.1,0.2 0.2,0.3 0.4,0.2 1,0.1 1.4,-0.2 0.2,-0.2 0.4,-0.3 0.6,-0.5 0,0.1 0,0.2 0,0.3 0,0.5 0,1 0,1.5 0,0.3 0.1,0.4 0.4,0.4 0.1,0 0.2,0 0.3,0 0.5,0 1,0 1.5,0 0.1,0 0.2,0.1 0.4,0.1 0.2,0 0.4,0.1 0.6,-0.1 0.2,-0.2 0.4,-0.5 0.8,-0.5 0,0 0,0 0,0 0.1,-0.1 0.3,-0.2 0.4,-0.3 0.2,-0.1 0.4,-0.2 0.6,-0.4 0.3,-0.3 0.7,-0.5 1.1,-0.5 0.1,0 0.1,0 0.2,0 0.3,0 0.6,-0.1 0.9,-0.1 0,0.2 0,0.3 0,0.4 0,0.7 0.1,1.4 0.1,2.1 0,0.2 0.1,0.3 0.2,0.4 0.3,0.3 0.5,0.6 0.8,0.8 0.3,0.3 0.7,0.6 1.2,0.5 0.1,0 0.2,0.1 0.3,0.1 0.2,0.1 0.3,0.1 0.5,0.2 0.1,0 0.2,0.1 0.2,0.1 0.2,0.2 0.5,0.3 0.7,0.5 0.2,0.1 0.5,0.2 0.6,0.3 0.2,0.3 0.4,0.2 0.7,0.3 0.3,0.1 0.7,0.1 1,0.3 0.2,0.1 0.3,0.2 0.5,0.4 0.1,0.1 0.2,0.1 0.2,0.2 0.1,0.3 0.1,0.5 0.2,0.8 0.1,0.3 0.2,0.6 0,0.9 0,0 0,0.1 0,0.2 0,0.1 0.1,0.3 0.2,0.4 0.1,0.2 0.2,0.5 0.3,0.7 0.1,0.1 0.1,0.3 0.2,0.4 0.2,0.1 0.4,0.1 0.6,0.2 0.5,0.1 1.1,0.1 1.6,0.2 0,0 0,0 0,0 0.1,0.4 0.1,0.7 0.2,1 0.1,0.3 0.3,0.6 0.5,0.7 0.4,0.2 0.6,0.5 0.6,0.9 0.1,0.4 0,0.8 0,1.3 0,0.2 -0.2,0.4 -0.2,0.7 0,0.2 -0.1,0.5 0,0.7 0.1,0.2 0.1,0.3 0,0.4 0,0.1 -0.1,0.3 -0.1,0.4 0,0.2 0.2,0.4 0.2,0.6 0.1,0.3 0.1,0.7 0.2,1 0,0.3 0,0.5 0,0.8 0,0.2 0.1,0.3 0.2,0.3 0.4,0.2 0.8,0.3 1.2,0.4 0.1,0 0.3,0 0.4,-0.1 0.3,-0.3 0.3,-0.3 0.6,-0.2 0.3,0.1 0.5,0.3 0.6,0.6 0.1,0.2 0.2,0.4 0.3,0.7 0.1,0.3 0.3,0.6 0.4,1 0.1,0.3 0.2,0.3 0.5,0.3 0.3,0 0.5,0 0.8,0 0.2,0 0.2,0.1 0.2,0.2 0,0.7 0,1.3 0,2 0,0.2 0.1,0.3 0.3,0.3 0.2,0 0.5,0 0.6,0.1 0.1,0.1 0.2,0.2 0.2,0.3 0.1,0.2 0.1,0.3 0.2,0.5 0,0.2 0.1,0.3 0.1,0.5 -0.1,0.2 -0.1,0.2 0,0.5 0,0 0,0.1 0,0.2 -0.1,0.1 -0.2,0.3 -0.3,0.4 -0.4,0.2 -0.7,0.5 -1.1,0.7 -0.3,0.3 -0.7,0.5 -0.9,0.8 0,0.1 -0.1,0.2 -0.2,0.3 -0.3,0.2 -0.5,0.5 -0.7,0.8 -0.3,0.5 -0.6,1 -0.9,1.5 -0.2,0.2 -0.1,0.4 -0.1,0.6 0.1,-0.1 0.2,-0.1 0.3,-0.2 0.1,-0.1 0.3,-0.2 0.4,-0.1 0.2,0.1 0.5,0.2 0.7,0.4 0.3,0.2 0.6,0.4 0.7,0.8 0,0.1 0.2,0.3 0.4,0.1 0,0 0.1,0 0.2,0 0.2,0 0.3,0.2 0.5,0.3 0.4,0.2 0.8,0.4 1.2,0.6 0.5,0.3 1,0.7 1.5,1.1 0.4,0.3 0.4,0.7 0.3,1.1 0,0.1 0,0.2 0,0.3 0,0.1 0.1,0.3 0.1,0.4 0,0.2 0.1,0.2 0.3,0.1 0.5,-0.3 0.7,-0.9 0.9,-1.5 0.1,-0.4 0.1,-0.8 0.2,-1.2 0,-0.4 0.2,-0.8 0.4,-1.1 0.2,-0.3 0.3,-0.5 0.3,-0.9 0,-0.4 0.3,-0.6 0.7,-0.5 0,0 0.1,0.1 0.1,0.1 0,0.2 0,0.4 -0.1,0.6 -0.1,0.3 -0.2,0.5 -0.4,0.8 -0.2,0.3 -0.3,0.6 -0.6,0.7 -0.1,0.1 -0.2,0.4 -0.2,0.6 0,0 0,0 0,0 0.5,-0.3 0.8,-0.8 1.1,-1.2 0.1,-0.2 0.3,-0.4 0.4,-0.6 0.1,-0.3 0.3,-0.5 0.3,-0.8 0.1,-0.3 0.2,-0.7 0.3,-1.1 0.2,-0.4 0.4,-0.7 0.6,-1 0.2,-0.3 0.5,-0.7 0.6,-1.1 0,-0.2 0.1,-0.3 0.2,-0.5 0.1,-0.2 0.2,-0.5 0,-0.7 -0.1,-0.1 -0.1,-0.2 -0.1,-0.3 -0.1,-0.4 -0.1,-0.8 -0.2,-1.2 0,-0.1 0,-0.1 0,-0.2 0,-0.1 -0.1,-0.2 -0.1,-0.3 0,-0.4 0.1,-0.7 0.2,-1.1 0,0 0,0 0,0 0.2,0 0.3,-0.1 0.4,-0.2 0.3,-0.3 0.6,-0.7 0.9,-1 0.3,-0.3 0.7,-0.6 1.1,-0.8 0.1,-0.1 0.4,-0.1 0.5,-0.3 0.1,-0.1 0.2,-0.1 0.4,-0.1 0.2,0.1 0.4,0.1 0.6,0.2 0,-0.1 0.1,-0.1 0,-0.2 -0.1,-0.3 0,-0.4 0.3,-0.5 0.2,-0.1 0.4,-0.2 0.4,-0.4 0.1,-0.2 0.2,-0.3 0.4,-0.3 0.9,0 1.9,-0.1 2.8,-0.1 0.2,0 0.3,-0.1 0.4,-0.3 0,-0.1 0,-0.2 0.1,-0.2 0.2,-0.2 0.3,-0.3 0.5,-0.5 0.4,-0.3 0.6,-0.6 0.6,-1.1 0,-0.3 0.1,-0.7 0.3,-1 0.1,-0.1 0.2,-0.3 0.3,-0.4 0.1,-0.3 0.2,-0.5 0.3,-0.8 0.1,-0.1 0.1,-0.3 0.2,-0.4 0.2,-0.2 0.3,-0.5 0.3,-0.8 0,-0.3 0,-0.6 0,-0.9 0,-0.4 0.1,-0.8 0.3,-1.1 0.1,-0.2 0.2,-0.3 0.3,-0.5 0.1,-0.6 0.1,-1.1 0.2,-1.7 0,-0.2 0.1,-0.4 0.1,-0.6 0,-0.2 0,-0.4 0,-0.6 -0.1,-0.4 -0.2,-0.8 -0.2,-1.2 0,-0.8 0,-1.5 0,-2.3 0,-0.1 0,-0.2 0,-0.2 0.2,-0.2 0.3,-0.5 0.1,-0.8 0,0 0,0 0.1,0 0.2,0.1 0.3,0.3 0.5,0.4 0.1,-0.1 0.2,-0.1 0.3,-0.2 0.4,-0.4 0.5,-1 0.8,-1.5 0.2,-0.4 0.3,-0.8 0.5,-1.1 0.4,-0.5 0.8,-0.9 1.2,-1.3 0.5,-0.5 0.8,-1 1.1,-1.5 0.2,-0.4 0.4,-0.7 0.5,-1.2 0.1,-0.5 0.2,-0.9 0.3,-1.3 0,-0.3 -0.1,-0.6 -0.1,-0.9 0,-0.3 -0.1,-0.6 -0.2,-0.9 -0.1,-0.4 -0.3,-0.9 -0.4,-1.3 -0.1,-0.3 -0.3,-0.5 -0.6,-0.6 -0.4,-0.1 -0.8,-0.1 -1.3,-0.2 -0.1,0 -0.3,-0.1 -0.4,-0.1 -0.6,-0.3 -1.1,-0.7 -1.6,-1.2 -0.7,-0.7 -1.4,-1.4 -2.3,-1.8 -0.3,-0.2 -0.6,-0.3 -1,-0.3 -0.3,0 -0.6,0 -0.9,0.1 -0.2,0 -0.4,0.1 -0.6,0 -0.3,0 -0.6,-0.1 -0.9,-0.2 -0.2,-0.1 -0.4,-0.1 -0.6,-0.2 -0.3,-0.2 -0.6,-0.3 -1,-0.3 -0.3,0 -0.6,0 -0.8,0.2 -0.1,0.1 -0.2,0.1 -0.3,0.2 0,-0.2 0.3,-0.3 0,-0.5 -0.4,0.2 -0.5,0.6 -0.8,0.9 0,-0.1 0,-0.2 0,-0.4 0.1,-0.2 0.2,-0.3 0.2,-0.5 0.1,-0.2 0,-0.3 -0.1,-0.5 -0.1,-0.2 -0.2,-0.4 -0.3,-0.7 -0.2,-0.3 -0.3,-0.3 -0.6,-0.1 -0.1,0 -0.1,0 -0.2,0 -0.1,-0.1 -0.1,-0.2 -0.2,-0.3 -0.3,-0.2 -0.5,-0.3 -0.8,-0.5 -0.3,-0.2 -0.7,-0.3 -1,-0.5 -0.4,-0.2 -0.8,-0.3 -1.2,-0.2 -0.2,0.1 -0.5,0.1 -0.6,0.2 -0.3,0.3 -0.5,0.6 -0.4,1 -0.2,0 -0.4,0.1 -0.5,0.1 -0.2,0.1 -0.3,0.2 -0.4,0.3 -0.1,0.1 -0.2,0.2 -0.2,0.1 -0.1,-0.5 -0.3,-0.6 -0.5,-0.6"
     id="path10" /></g>
</svg>
